<svg width="365" height="780" viewBox="0 0 365 780" fill="none" xmlns="http://www.w3.org/2000/svg">
<rect x="0.5" y="0.499756" width="364" height="779" fill="#E1E1E1" stroke="#1E1E1E"/>
<rect x="92.5" y="609.5" width="179" height="41" fill="#1E1E1E" stroke="#1E1E1E"/>
<path d="M130.472 406.024H133.992C135.304 406.024 136.339 406.424 137.096 407.224C137.864 408.013 138.248 409.373 138.248 411.304V411.704C138.248 413.624 137.864 414.989 137.096 415.8C136.328 416.6 135.293 417 133.992 417H130.472V406.024ZM133.992 416.232C135.037 416.232 135.864 415.906 136.472 415.256C137.08 414.605 137.384 413.469 137.384 411.848V411.16C137.384 408.248 136.253 406.792 133.992 406.792H131.336V416.232H133.992ZM147.221 413.976C147.221 414.637 147.077 415.208 146.789 415.688C146.512 416.168 146.133 416.536 145.653 416.792C145.173 417.037 144.634 417.16 144.037 417.16C143.365 417.16 142.768 417 142.245 416.68C141.733 416.349 141.333 415.874 141.045 415.256C140.757 414.637 140.613 413.896 140.613 413.032V412.792C140.613 411.928 140.752 411.186 141.029 410.568C141.317 409.949 141.717 409.48 142.229 409.16C142.752 408.829 143.349 408.664 144.021 408.664C144.629 408.664 145.173 408.797 145.653 409.064C146.144 409.32 146.528 409.698 146.805 410.2C147.082 410.69 147.221 411.282 147.221 411.976V413H141.429V413.128C141.429 414.194 141.669 415.01 142.149 415.576C142.64 416.141 143.269 416.424 144.037 416.424C144.72 416.424 145.285 416.216 145.733 415.8C146.192 415.384 146.421 414.776 146.421 413.976H147.221ZM144.021 409.4C143.306 409.4 142.714 409.645 142.245 410.136C141.776 410.626 141.509 411.336 141.445 412.264H146.421V411.976C146.421 411.144 146.192 410.509 145.733 410.072C145.285 409.624 144.714 409.4 144.021 409.4ZM150.224 414.488C150.213 414.541 150.208 414.616 150.208 414.712C150.208 415.256 150.442 415.677 150.912 415.976C151.392 416.274 152.042 416.424 152.864 416.424C153.6 416.424 154.17 416.28 154.576 415.992C154.981 415.693 155.184 415.304 155.184 414.824C155.184 414.45 155.066 414.157 154.832 413.944C154.608 413.73 154.325 413.57 153.984 413.464C153.653 413.346 153.205 413.234 152.64 413.128C151.989 413 151.466 412.872 151.072 412.744C150.677 412.605 150.341 412.392 150.064 412.104C149.786 411.816 149.648 411.416 149.648 410.904C149.648 410.242 149.914 409.704 150.448 409.288C150.981 408.872 151.77 408.664 152.816 408.664C153.498 408.664 154.064 408.776 154.512 409C154.96 409.224 155.285 409.506 155.488 409.848C155.701 410.178 155.808 410.52 155.808 410.872L155.792 411.096H154.992V410.888C154.992 410.546 154.837 410.216 154.528 409.896C154.229 409.565 153.61 409.4 152.672 409.4C151.765 409.4 151.168 409.554 150.88 409.864C150.602 410.173 150.464 410.509 150.464 410.872C150.464 411.181 150.57 411.432 150.784 411.624C150.997 411.816 151.264 411.965 151.584 412.072C151.904 412.168 152.346 412.274 152.911 412.392C153.562 412.53 154.096 412.669 154.512 412.808C154.928 412.946 155.28 413.165 155.568 413.464C155.856 413.762 156 414.162 156 414.664C156 415.538 155.696 416.173 155.088 416.568C154.49 416.962 153.68 417.16 152.656 417.16C151.877 417.16 151.242 417.037 150.752 416.792C150.272 416.546 149.925 416.248 149.712 415.896C149.509 415.544 149.408 415.208 149.408 414.888C149.408 414.76 149.408 414.664 149.408 414.6C149.418 414.536 149.424 414.498 149.424 414.488H150.224ZM161.042 413.288L159.378 414.968V417H158.562V405.48H159.378V414.024L164.018 408.824H165.026L161.586 412.68L165.298 417H164.242L161.042 413.288ZM170.101 416.888C169.962 416.973 169.792 417.037 169.589 417.08C169.397 417.133 169.205 417.16 169.013 417.16C168.522 417.16 168.128 417.01 167.829 416.712C167.53 416.413 167.381 415.97 167.381 415.384V409.56H166.485V408.824H167.381L167.669 406.216H168.197V408.824H170.101V409.56H168.197V415.352C168.197 415.778 168.277 416.066 168.437 416.216C168.608 416.354 168.832 416.424 169.109 416.424C169.226 416.424 169.386 416.397 169.589 416.344C169.792 416.29 169.962 416.232 170.101 416.168V416.888ZM175.616 417.16C174.944 417.16 174.347 417 173.824 416.68C173.301 416.349 172.891 415.874 172.592 415.256C172.304 414.637 172.16 413.896 172.16 413.032V412.792C172.16 411.928 172.304 411.186 172.592 410.568C172.891 409.949 173.301 409.48 173.824 409.16C174.347 408.829 174.944 408.664 175.616 408.664C176.288 408.664 176.885 408.829 177.408 409.16C177.931 409.48 178.336 409.949 178.624 410.568C178.923 411.186 179.072 411.928 179.072 412.792V413.032C179.072 413.896 178.923 414.637 178.624 415.256C178.336 415.874 177.931 416.349 177.408 416.68C176.885 417 176.288 417.16 175.616 417.16ZM175.616 416.424C176.395 416.424 177.029 416.141 177.52 415.576C178.011 415.01 178.256 414.194 178.256 413.128V412.696C178.256 411.629 178.011 410.813 177.52 410.248C177.029 409.682 176.395 409.4 175.616 409.4C174.837 409.4 174.203 409.682 173.712 410.248C173.221 410.813 172.976 411.629 172.976 412.696V413.128C172.976 414.194 173.221 415.01 173.712 415.576C174.203 416.141 174.837 416.424 175.616 416.424ZM182.564 410.056C183.161 409.128 184.062 408.664 185.268 408.664C186.228 408.664 187.006 409.026 187.604 409.752C188.212 410.466 188.516 411.544 188.516 412.984V413.16C188.516 414.002 188.372 414.728 188.084 415.336C187.796 415.933 187.406 416.386 186.916 416.696C186.425 417.005 185.876 417.16 185.268 417.16C184.702 417.16 184.19 417.048 183.732 416.824C183.284 416.589 182.926 416.269 182.66 415.864V419.896H181.844V408.824H182.388L182.564 410.056ZM182.644 413.128C182.644 414.226 182.878 415.053 183.348 415.608C183.828 416.152 184.441 416.424 185.188 416.424C185.924 416.424 186.526 416.146 186.996 415.592C187.465 415.037 187.7 414.216 187.7 413.128V412.952C187.7 411.704 187.47 410.802 187.012 410.248C186.553 409.682 185.945 409.4 185.188 409.4C184.42 409.4 183.801 409.677 183.332 410.232C182.873 410.776 182.644 411.677 182.644 412.936V413.128ZM194.854 412.216H198.902V413.208H194.854V412.216ZM211.474 408.6C211.474 407.96 211.208 407.474 210.674 407.144C210.152 406.802 209.48 406.632 208.658 406.632C207.816 406.632 207.138 406.792 206.626 407.112C206.114 407.421 205.858 407.917 205.858 408.6C205.858 409.048 205.992 409.41 206.258 409.688C206.525 409.954 206.856 410.168 207.25 410.328C207.645 410.477 208.178 410.637 208.85 410.808C209.661 411.021 210.312 411.229 210.802 411.432C211.304 411.624 211.725 411.928 212.066 412.344C212.418 412.749 212.594 413.298 212.594 413.992C212.594 415.09 212.232 415.896 211.506 416.408C210.792 416.909 209.858 417.16 208.706 417.16C207.512 417.16 206.552 416.914 205.826 416.424C205.101 415.922 204.738 415.117 204.738 414.008L204.754 413.72H205.57L205.554 414.152C205.554 414.93 205.837 415.501 206.402 415.864C206.968 416.216 207.714 416.392 208.642 416.392C210.712 416.392 211.746 415.608 211.746 414.04C211.746 413.538 211.602 413.133 211.314 412.824C211.037 412.514 210.69 412.28 210.274 412.12C209.869 411.96 209.309 411.784 208.594 411.592C207.805 411.378 207.176 411.176 206.706 410.984C206.237 410.792 205.837 410.504 205.506 410.12C205.176 409.725 205.01 409.202 205.01 408.552C205.01 407.656 205.352 406.984 206.034 406.536C206.728 406.088 207.597 405.864 208.642 405.864C209.72 405.864 210.594 406.098 211.266 406.568C211.938 407.037 212.274 407.762 212.274 408.744V408.952H211.474V408.6ZM215.234 405.48H216.178V406.344H215.234V405.48ZM215.298 417V408.824H216.114V417H215.298ZM218.67 417V416.616L223.102 409.56H218.942V408.824H224.302V409.208L219.854 416.264H224.43V417H218.67ZM232.924 413.976C232.924 414.637 232.78 415.208 232.492 415.688C232.215 416.168 231.836 416.536 231.356 416.792C230.876 417.037 230.337 417.16 229.74 417.16C229.068 417.16 228.471 417 227.948 416.68C227.436 416.349 227.036 415.874 226.748 415.256C226.46 414.637 226.316 413.896 226.316 413.032V412.792C226.316 411.928 226.455 411.186 226.732 410.568C227.02 409.949 227.42 409.48 227.932 409.16C228.455 408.829 229.052 408.664 229.724 408.664C230.332 408.664 230.876 408.797 231.356 409.064C231.847 409.32 232.231 409.698 232.508 410.2C232.785 410.69 232.924 411.282 232.924 411.976V413H227.132V413.128C227.132 414.194 227.372 415.01 227.852 415.576C228.343 416.141 228.972 416.424 229.74 416.424C230.423 416.424 230.988 416.216 231.436 415.8C231.895 415.384 232.124 414.776 232.124 413.976H232.924ZM229.724 409.4C229.009 409.4 228.417 409.645 227.948 410.136C227.479 410.626 227.212 411.336 227.148 412.264H232.124V411.976C232.124 411.144 231.895 410.509 231.436 410.072C230.988 409.624 230.417 409.4 229.724 409.4Z" fill="#1E1E1E"/>
<path d="M182.15 347L216 377.858H212.596L182.15 361.195L151.292 377.858H148L182.15 347Z" fill="#1E1E1E"/>
<rect x="112" y="280" width="140" height="78.75" fill="#1E1E1E"/>
<rect x="114" y="281" width="136" height="76.5" fill="#E1E1E1"/>
<path d="M154.164 435.424H156.504V428.572H154.164V428.164C154.748 428.1 155.224 428.04 155.592 427.984C155.968 427.92 156.396 427.808 156.876 427.648H157.152V435.424H159.492V436H154.164V435.424ZM161.223 435.724C161.223 435.228 161.319 434.828 161.511 434.524C161.711 434.22 162.027 433.928 162.459 433.648L164.883 432.076C165.195 431.876 165.455 431.624 165.663 431.32C165.871 431.008 165.975 430.644 165.975 430.228C165.975 429.636 165.799 429.156 165.447 428.788C165.095 428.412 164.615 428.224 164.007 428.224C163.631 428.224 163.287 428.316 162.975 428.5C162.663 428.676 162.415 428.92 162.231 429.232C162.055 429.544 161.967 429.888 161.967 430.264C161.967 430.392 161.971 430.488 161.979 430.552H161.331L161.319 430.336C161.319 429.808 161.435 429.34 161.667 428.932C161.907 428.524 162.231 428.208 162.639 427.984C163.047 427.76 163.503 427.648 164.007 427.648C164.527 427.648 164.983 427.76 165.375 427.984C165.775 428.208 166.083 428.512 166.299 428.896C166.515 429.28 166.623 429.712 166.623 430.192C166.623 430.768 166.491 431.248 166.227 431.632C165.963 432.016 165.615 432.348 165.183 432.628L162.639 434.272C162.327 434.472 162.131 434.68 162.051 434.896C161.971 435.112 161.931 435.288 161.931 435.424H166.671V436H161.223V435.724ZM172.566 431.776C173.046 431.968 173.41 432.22 173.658 432.532C173.914 432.844 174.042 433.268 174.042 433.804C174.042 434.516 173.806 435.08 173.334 435.496C172.862 435.912 172.186 436.12 171.306 436.12C170.474 436.12 169.81 435.92 169.314 435.52C168.818 435.12 168.57 434.548 168.57 433.804C168.57 433.276 168.698 432.844 168.954 432.508C169.218 432.172 169.578 431.928 170.034 431.776V431.728C169.65 431.536 169.354 431.3 169.146 431.02C168.946 430.732 168.846 430.344 168.846 429.856C168.846 429.176 169.07 428.64 169.518 428.248C169.966 427.848 170.562 427.648 171.306 427.648C172.05 427.648 172.646 427.848 173.094 428.248C173.542 428.64 173.766 429.176 173.766 429.856C173.766 430.344 173.662 430.732 173.454 431.02C173.254 431.3 172.958 431.536 172.566 431.728V431.776ZM169.494 429.856C169.494 430.36 169.662 430.76 169.998 431.056C170.342 431.344 170.774 431.488 171.294 431.488C171.814 431.488 172.246 431.344 172.59 431.056C172.934 430.768 173.106 430.368 173.106 429.856C173.106 429.336 172.942 428.936 172.614 428.656C172.294 428.368 171.854 428.224 171.294 428.224C170.734 428.224 170.294 428.368 169.974 428.656C169.654 428.944 169.494 429.344 169.494 429.856ZM173.394 433.804C173.394 433.268 173.206 432.844 172.83 432.532C172.462 432.22 171.954 432.064 171.306 432.064C170.658 432.064 170.146 432.22 169.77 432.532C169.402 432.844 169.218 433.268 169.218 433.804C169.218 434.348 169.39 434.776 169.734 435.088C170.086 435.392 170.61 435.544 171.306 435.544C171.994 435.544 172.514 435.392 172.866 435.088C173.218 434.784 173.394 434.356 173.394 433.804ZM181.304 433.468C181.304 433.996 181.188 434.46 180.956 434.86C180.732 435.26 180.416 435.572 180.008 435.796C179.608 436.012 179.156 436.12 178.652 436.12C178.148 436.12 177.692 436.012 177.284 435.796C176.884 435.572 176.568 435.26 176.336 434.86C176.112 434.46 176 433.996 176 433.468V430.3C176 429.772 176.112 429.308 176.336 428.908C176.568 428.508 176.884 428.2 177.284 427.984C177.692 427.76 178.148 427.648 178.652 427.648C179.156 427.648 179.608 427.76 180.008 427.984C180.416 428.2 180.732 428.508 180.956 428.908C181.188 429.308 181.304 429.772 181.304 430.3V433.468ZM180.656 430.228C180.656 429.852 180.568 429.512 180.392 429.208C180.224 428.896 179.984 428.656 179.672 428.488C179.368 428.312 179.028 428.224 178.652 428.224C178.276 428.224 177.932 428.312 177.62 428.488C177.316 428.656 177.076 428.896 176.9 429.208C176.732 429.512 176.648 429.852 176.648 430.228V433.54C176.648 433.916 176.732 434.26 176.9 434.572C177.076 434.876 177.316 435.116 177.62 435.292C177.932 435.46 178.276 435.544 178.652 435.544C179.028 435.544 179.368 435.46 179.672 435.292C179.984 435.116 180.224 434.876 180.392 434.572C180.568 434.26 180.656 433.916 180.656 433.54V430.228ZM187.247 436L185.363 433.348H185.351L183.443 436H182.747L185.027 432.856L182.843 429.868H183.611L185.387 432.364H185.399L187.199 429.868H187.895L185.723 432.856L188.003 436H187.247ZM195.282 428.128C194.386 429.128 193.602 430.28 192.93 431.584C192.258 432.88 191.922 434.168 191.922 435.448C191.922 435.608 191.93 435.792 191.946 436H191.202C191.202 434.576 191.502 433.22 192.102 431.932C192.702 430.636 193.434 429.464 194.298 428.416H189.63V427.768H195.282V428.128ZM196.977 435.724C196.977 435.228 197.073 434.828 197.265 434.524C197.465 434.22 197.781 433.928 198.213 433.648L200.637 432.076C200.949 431.876 201.209 431.624 201.417 431.32C201.625 431.008 201.729 430.644 201.729 430.228C201.729 429.636 201.553 429.156 201.201 428.788C200.849 428.412 200.369 428.224 199.761 428.224C199.385 428.224 199.041 428.316 198.729 428.5C198.417 428.676 198.169 428.92 197.985 429.232C197.809 429.544 197.721 429.888 197.721 430.264C197.721 430.392 197.725 430.488 197.733 430.552H197.085L197.073 430.336C197.073 429.808 197.189 429.34 197.421 428.932C197.661 428.524 197.985 428.208 198.393 427.984C198.801 427.76 199.257 427.648 199.761 427.648C200.281 427.648 200.737 427.76 201.129 427.984C201.529 428.208 201.837 428.512 202.053 428.896C202.269 429.28 202.377 429.712 202.377 430.192C202.377 430.768 202.245 431.248 201.981 431.632C201.717 432.016 201.369 432.348 200.937 432.628L198.393 434.272C198.081 434.472 197.885 434.68 197.805 434.896C197.725 435.112 197.685 435.288 197.685 435.424H202.425V436H196.977V435.724ZM209.676 433.468C209.676 433.996 209.56 434.46 209.328 434.86C209.104 435.26 208.788 435.572 208.38 435.796C207.98 436.012 207.528 436.12 207.024 436.12C206.52 436.12 206.064 436.012 205.656 435.796C205.256 435.572 204.94 435.26 204.708 434.86C204.484 434.46 204.372 433.996 204.372 433.468V430.3C204.372 429.772 204.484 429.308 204.708 428.908C204.94 428.508 205.256 428.2 205.656 427.984C206.064 427.76 206.52 427.648 207.024 427.648C207.528 427.648 207.98 427.76 208.38 427.984C208.788 428.2 209.104 428.508 209.328 428.908C209.56 429.308 209.676 429.772 209.676 430.3V433.468ZM209.028 430.228C209.028 429.852 208.94 429.512 208.764 429.208C208.596 428.896 208.356 428.656 208.044 428.488C207.74 428.312 207.4 428.224 207.024 428.224C206.648 428.224 206.304 428.312 205.992 428.488C205.688 428.656 205.448 428.896 205.272 429.208C205.104 429.512 205.02 429.852 205.02 430.228V433.54C205.02 433.916 205.104 434.26 205.272 434.572C205.448 434.876 205.688 435.116 205.992 435.292C206.304 435.46 206.648 435.544 207.024 435.544C207.4 435.544 207.74 435.46 208.044 435.292C208.356 435.116 208.596 434.876 208.764 434.572C208.94 434.26 209.028 433.916 209.028 433.54V430.228Z" fill="#1E1E1E"/>
<path d="M255 487C255.263 486.737 255.574 486.529 255.918 486.387C256.261 486.244 256.629 486.171 257 486.171C257.371 486.171 257.739 486.244 258.082 486.387C258.426 486.529 258.737 486.737 259 487C259.263 487.262 259.471 487.574 259.613 487.917C259.755 488.261 259.828 488.628 259.828 489C259.828 489.371 259.755 489.739 259.613 490.082C259.471 490.425 259.263 490.737 259 491L245.5 504.5L240 506L241.5 500.5L255 487Z" stroke="#1E1E1E" stroke-linecap="round" stroke-linejoin="round"/>
<path d="M192 493H188L185 502L179 484L176 493H172" stroke="#1E1E1E" stroke-linecap="round" stroke-linejoin="round"/>
<path d="M105.27 487.96L114 493.01L122.73 487.96M114 503.08V493M123 497V489C123 488.649 122.907 488.305 122.732 488.001C122.556 487.697 122.304 487.445 122 487.27L115 483.27C114.696 483.094 114.351 483.002 114 483.002C113.649 483.002 113.304 483.094 113 483.27L106 487.27C105.696 487.445 105.444 487.697 105.268 488.001C105.093 488.305 105 488.649 105 489V497C105 497.351 105.093 497.695 105.268 497.999C105.444 498.302 105.696 498.554 106 498.73L113 502.73C113.304 502.905 113.649 502.998 114 502.998C114.351 502.998 114.696 502.905 115 502.73L122 498.73C122.304 498.554 122.556 498.302 122.732 497.999C122.907 497.695 123 497.351 123 497Z" stroke="#1E1E1E" stroke-linecap="round" stroke-linejoin="round"/>
<path d="M159.328 637.848H164.008V624.144H159.328V623.328C160.496 623.2 161.448 623.08 162.184 622.968C162.936 622.84 163.792 622.616 164.752 622.296H165.304V637.848H169.984V639H159.328V637.848ZM174.958 630.816C175.406 630.16 176.006 629.648 176.758 629.28C177.51 628.896 178.31 628.704 179.158 628.704C180.102 628.704 180.966 628.928 181.75 629.376C182.534 629.824 183.15 630.448 183.598 631.248C184.046 632.048 184.27 632.944 184.27 633.936C184.27 634.992 184.038 635.92 183.574 636.72C183.126 637.52 182.494 638.144 181.678 638.592C180.878 639.024 179.974 639.24 178.966 639.24C177.958 639.24 177.046 639.024 176.23 638.592C175.43 638.144 174.798 637.52 174.334 636.72C173.886 635.92 173.662 634.992 173.662 633.936V627.6C173.662 626.544 173.878 625.616 174.31 624.816C174.758 624.016 175.374 623.4 176.158 622.968C176.958 622.52 177.862 622.296 178.87 622.296C179.878 622.296 180.766 622.52 181.534 622.968C182.318 623.4 182.918 624.016 183.334 624.816C183.766 625.616 183.982 626.544 183.982 627.6H182.734V627.456C182.734 626.288 182.374 625.328 181.654 624.576C180.934 623.824 180.006 623.448 178.87 623.448C178.118 623.448 177.446 623.624 176.854 623.976C176.262 624.312 175.798 624.784 175.462 625.392C175.126 626 174.958 626.688 174.958 627.456V630.816ZM174.958 634.08C174.958 634.832 175.126 635.52 175.462 636.144C175.814 636.752 176.294 637.232 176.902 637.584C177.526 637.92 178.214 638.088 178.966 638.088C179.718 638.088 180.398 637.92 181.006 637.584C181.63 637.232 182.11 636.752 182.446 636.144C182.798 635.52 182.974 634.832 182.974 634.08V633.864C182.974 633.112 182.798 632.432 182.446 631.824C182.11 631.2 181.63 630.72 181.006 630.384C180.398 630.032 179.718 629.856 178.966 629.856C178.214 629.856 177.526 630.032 176.902 630.384C176.294 630.72 175.814 631.2 175.462 631.824C175.126 632.432 174.958 633.112 174.958 633.864V634.08ZM188.187 626.736H189.747V628.392H188.187V626.736ZM188.187 637.344H189.747V639H188.187V637.344ZM203.097 630.696C202.649 631.352 202.049 631.872 201.297 632.256C200.545 632.64 199.745 632.832 198.897 632.832C197.953 632.832 197.089 632.608 196.305 632.16C195.521 631.712 194.905 631.088 194.457 630.288C194.009 629.488 193.785 628.592 193.785 627.6C193.785 626.544 194.009 625.616 194.457 624.816C194.921 624.016 195.553 623.4 196.353 622.968C197.169 622.52 198.081 622.296 199.089 622.296C200.097 622.296 201.001 622.52 201.801 622.968C202.617 623.4 203.249 624.016 203.697 624.816C204.161 625.616 204.393 626.544 204.393 627.6V633.936C204.393 634.992 204.169 635.92 203.721 636.72C203.273 637.52 202.649 638.144 201.849 638.592C201.049 639.024 200.145 639.24 199.137 639.24C198.129 639.24 197.233 639.024 196.449 638.592C195.665 638.144 195.057 637.52 194.625 636.72C194.193 635.92 193.977 634.992 193.977 633.936H195.225V634.08C195.225 634.848 195.393 635.536 195.729 636.144C196.065 636.752 196.529 637.232 197.121 637.584C197.713 637.92 198.385 638.088 199.137 638.088C199.889 638.088 200.569 637.92 201.177 637.584C201.785 637.232 202.257 636.752 202.593 636.144C202.929 635.52 203.097 634.832 203.097 634.08V630.696ZM203.097 627.456C203.097 626.704 202.921 626.024 202.569 625.416C202.233 624.792 201.753 624.312 201.129 623.976C200.521 623.624 199.841 623.448 199.089 623.448C198.337 623.448 197.649 623.624 197.025 623.976C196.417 624.312 195.937 624.792 195.585 625.416C195.249 626.024 195.081 626.704 195.081 627.456V627.672C195.081 628.424 195.249 629.112 195.585 629.736C195.937 630.344 196.417 630.824 197.025 631.176C197.649 631.512 198.337 631.68 199.089 631.68C199.841 631.68 200.521 631.512 201.129 631.176C201.753 630.824 202.233 630.344 202.569 629.736C202.921 629.112 203.097 628.424 203.097 627.672V627.456Z" fill="#E1E1E1"/>
<path d="M202 319C202 330.045 193.046 339 182 339M202 319C202 307.954 193.046 299 182 299M202 319H162M182 339C170.954 339 162 330.045 162 319M182 339C187.003 333.523 189.846 326.416 190 319C189.846 311.584 187.003 304.476 182 299M182 339C176.997 333.523 174.154 326.416 174 319C174.154 311.584 176.997 304.476 182 299M162 319C162 307.954 170.954 299 182 299" stroke="#1E1E1E" stroke-linecap="round" stroke-linejoin="round"/>
<g filter="url(#filter0_i_63_17)">
<path d="M132.258 102V88.2798H133.338V101.04H140.138L140.378 102H132.258ZM150.081 100.62C150.081 101.06 150.261 101.28 150.621 101.28C150.927 101.28 151.261 101.173 151.621 100.96V101.82C151.247 102.073 150.821 102.2 150.341 102.2C149.861 102.2 149.527 102.026 149.341 101.68C149.154 101.32 149.061 100.833 149.061 100.22C148.647 100.9 148.127 101.4 147.501 101.72C146.887 102.04 146.161 102.2 145.321 102.2C144.374 102.2 143.601 101.986 143.001 101.56C142.401 101.12 142.101 100.38 142.101 99.3398C142.101 98.3931 142.381 97.6864 142.941 97.2198C143.514 96.7398 144.281 96.4331 145.241 96.2998C146.214 96.1531 147.487 96.0798 149.061 96.0798V94.7998C149.061 93.9464 148.854 93.3531 148.441 93.0198C148.041 92.6731 147.361 92.4998 146.401 92.4998C145.521 92.4998 144.814 92.6731 144.281 93.0198C143.747 93.3531 143.481 93.8731 143.481 94.5798V94.8998H142.501C142.474 94.6864 142.461 94.5131 142.461 94.3798C142.461 93.5131 142.827 92.8331 143.561 92.3398C144.307 91.8331 145.254 91.5798 146.401 91.5798C147.641 91.5798 148.561 91.8264 149.161 92.3198C149.774 92.8131 150.081 93.5731 150.081 94.5998V100.62ZM149.061 96.9998C147.647 96.9998 146.534 97.0464 145.721 97.1398C144.921 97.2331 144.287 97.4531 143.821 97.7998C143.354 98.1331 143.121 98.6531 143.121 99.3598C143.121 100.026 143.307 100.513 143.681 100.82C144.067 101.126 144.681 101.28 145.521 101.28C146.121 101.28 146.687 101.146 147.221 100.88C147.767 100.613 148.207 100.213 148.541 99.6798C148.887 99.1331 149.061 98.4664 149.061 97.6798V96.9998ZM161.54 95.7198C161.54 94.6398 161.287 93.8331 160.78 93.2998C160.287 92.7664 159.58 92.4998 158.66 92.4998C158.073 92.4998 157.54 92.6398 157.06 92.9198C156.58 93.1998 156.2 93.5864 155.92 94.0798C155.653 94.5731 155.52 95.1198 155.52 95.7198V102H154.5V91.7798H155.18L155.4 93.2998C155.747 92.7664 156.22 92.3464 156.82 92.0398C157.433 91.7331 158.08 91.5798 158.76 91.5798C159.88 91.5798 160.787 91.9064 161.48 92.5598C162.187 93.1998 162.54 94.1531 162.54 95.4198V102H161.54V95.7198ZM173.175 100.46C172.429 101.62 171.302 102.2 169.795 102.2C168.595 102.2 167.615 101.753 166.855 100.86C166.109 99.9531 165.735 98.5998 165.735 96.7998V96.5798C165.735 95.5264 165.915 94.6264 166.275 93.8798C166.635 93.1198 167.122 92.5464 167.735 92.1598C168.349 91.7731 169.035 91.5798 169.795 91.5798C170.502 91.5798 171.135 91.7264 171.695 92.0198C172.269 92.2998 172.722 92.6931 173.055 93.1998V87.5998H174.075V102H173.395L173.175 100.46ZM173.075 96.6198C173.075 95.2464 172.775 94.2198 172.175 93.5398C171.589 92.8464 170.829 92.4998 169.895 92.4998C168.975 92.4998 168.222 92.8464 167.635 93.5398C167.049 94.2331 166.755 95.2598 166.755 96.6198V96.8398C166.755 98.3998 167.042 99.5331 167.615 100.24C168.189 100.933 168.949 101.28 169.895 101.28C170.855 101.28 171.622 100.94 172.195 100.26C172.782 99.5664 173.075 98.4331 173.075 96.8598V96.6198ZM178.195 88.2798H183.815C184.495 88.2798 185.122 88.4464 185.695 88.7798C186.269 89.1131 186.722 89.5664 187.055 90.1398C187.389 90.7131 187.555 91.3398 187.555 92.0198C187.555 92.6998 187.389 93.3264 187.055 93.8998C186.722 94.4731 186.269 94.9264 185.695 95.2598C185.122 95.5931 184.495 95.7598 183.815 95.7598H179.275V102H178.195V88.2798ZM183.675 94.8198C184.182 94.8198 184.655 94.6998 185.095 94.4598C185.535 94.2064 185.882 93.8664 186.135 93.4398C186.389 92.9998 186.515 92.5264 186.515 92.0198C186.515 91.5131 186.389 91.0464 186.135 90.6198C185.882 90.1931 185.535 89.8598 185.095 89.6198C184.655 89.3664 184.182 89.2398 183.675 89.2398H179.275V94.8198H183.675ZM197.659 100.62C197.659 101.06 197.839 101.28 198.199 101.28C198.505 101.28 198.839 101.173 199.199 100.96V101.82C198.825 102.073 198.399 102.2 197.919 102.2C197.439 102.2 197.105 102.026 196.919 101.68C196.732 101.32 196.639 100.833 196.639 100.22C196.225 100.9 195.705 101.4 195.079 101.72C194.465 102.04 193.739 102.2 192.899 102.2C191.952 102.2 191.179 101.986 190.579 101.56C189.979 101.12 189.679 100.38 189.679 99.3398C189.679 98.3931 189.959 97.6864 190.519 97.2198C191.092 96.7398 191.859 96.4331 192.819 96.2998C193.792 96.1531 195.065 96.0798 196.639 96.0798V94.7998C196.639 93.9464 196.432 93.3531 196.019 93.0198C195.619 92.6731 194.939 92.4998 193.979 92.4998C193.099 92.4998 192.392 92.6731 191.859 93.0198C191.325 93.3531 191.059 93.8731 191.059 94.5798V94.8998H190.079C190.052 94.6864 190.039 94.5131 190.039 94.3798C190.039 93.5131 190.405 92.8331 191.139 92.3398C191.885 91.8331 192.832 91.5798 193.979 91.5798C195.219 91.5798 196.139 91.8264 196.739 92.3198C197.352 92.8131 197.659 93.5731 197.659 94.5998V100.62ZM196.639 96.9998C195.225 96.9998 194.112 97.0464 193.299 97.1398C192.499 97.2331 191.865 97.4531 191.399 97.7998C190.932 98.1331 190.699 98.6531 190.699 99.3598C190.699 100.026 190.885 100.513 191.259 100.82C191.645 101.126 192.259 101.28 193.099 101.28C193.699 101.28 194.265 101.146 194.799 100.88C195.345 100.613 195.785 100.213 196.119 99.6798C196.465 99.1331 196.639 98.4664 196.639 97.6798V96.9998ZM208.498 100.66C209.191 100.66 209.758 100.886 210.198 101.34C210.638 101.793 210.858 102.36 210.858 103.04C210.858 103.546 210.731 104.006 210.478 104.42C210.238 104.833 209.898 105.16 209.458 105.4C209.031 105.64 208.545 105.76 207.998 105.76H203.658C203.191 105.76 202.765 105.64 202.378 105.4C201.991 105.16 201.685 104.846 201.458 104.46C201.245 104.073 201.138 103.66 201.138 103.22C201.138 102.726 201.271 102.266 201.538 101.84C201.805 101.4 202.165 101.086 202.618 100.9C202.018 100.54 201.718 100.006 201.718 99.2998C201.718 98.8331 201.858 98.4331 202.138 98.0998C202.431 97.7531 202.831 97.4798 203.338 97.2798C202.911 96.9731 202.578 96.6064 202.338 96.1798C202.098 95.7531 201.978 95.2931 201.978 94.7998C201.978 93.8531 202.305 93.0798 202.958 92.4798C203.611 91.8798 204.585 91.5798 205.878 91.5798C206.745 91.5798 207.485 91.7264 208.098 92.0198C208.591 91.8864 208.998 91.6398 209.318 91.2798C209.638 90.9198 209.831 90.4731 209.898 89.9398H210.858C210.858 90.5264 210.671 91.0731 210.298 91.5798C209.938 92.0864 209.465 92.3798 208.878 92.4598L208.858 92.5398C209.151 92.7931 209.378 93.1198 209.538 93.5198C209.698 93.9064 209.778 94.3331 209.778 94.7998C209.778 95.7464 209.451 96.5198 208.798 97.1198C208.145 97.7064 207.171 97.9998 205.878 97.9998H204.238C203.811 97.9998 203.451 98.1198 203.158 98.3598C202.878 98.5998 202.738 98.9264 202.738 99.3398C202.738 99.7531 202.878 100.08 203.158 100.32C203.438 100.546 203.798 100.66 204.238 100.66H208.498ZM208.758 94.7998C208.758 94.1464 208.498 93.5998 207.978 93.1598C207.471 92.7198 206.771 92.4998 205.878 92.4998C204.985 92.4998 204.278 92.7198 203.758 93.1598C203.251 93.5998 202.998 94.1464 202.998 94.7998C202.998 95.4531 203.251 95.9998 203.758 96.4398C204.278 96.8798 204.985 97.0998 205.878 97.0998C206.771 97.0998 207.471 96.8798 207.978 96.4398C208.498 95.9998 208.758 95.4531 208.758 94.7998ZM208.058 104.84C208.538 104.84 208.951 104.666 209.298 104.32C209.658 103.986 209.838 103.58 209.838 103.1C209.838 102.713 209.698 102.373 209.418 102.08C209.138 101.786 208.805 101.64 208.418 101.64H203.738C203.298 101.64 202.918 101.793 202.598 102.1C202.291 102.42 202.138 102.8 202.138 103.24C202.138 103.68 202.291 104.053 202.598 104.36C202.918 104.68 203.298 104.84 203.738 104.84H208.058ZM221.065 98.2198C221.065 99.0464 220.885 99.7598 220.525 100.36C220.178 100.96 219.705 101.42 219.105 101.74C218.505 102.046 217.832 102.2 217.085 102.2C216.245 102.2 215.498 102 214.845 101.6C214.205 101.186 213.705 100.593 213.345 99.8198C212.985 99.0464 212.805 98.1198 212.805 97.0398V96.7398C212.805 95.6598 212.978 94.7331 213.325 93.9598C213.685 93.1864 214.185 92.5998 214.825 92.1998C215.478 91.7864 216.225 91.5798 217.065 91.5798C217.825 91.5798 218.505 91.7464 219.105 92.0798C219.718 92.3998 220.198 92.8731 220.545 93.4998C220.892 94.1131 221.065 94.8531 221.065 95.7198V96.9998H213.825V97.1598C213.825 98.4931 214.125 99.5131 214.725 100.22C215.338 100.926 216.125 101.28 217.085 101.28C217.938 101.28 218.645 101.02 219.205 100.5C219.778 99.9798 220.065 99.2198 220.065 98.2198H221.065ZM217.065 92.4998C216.172 92.4998 215.432 92.8064 214.845 93.4198C214.258 94.0331 213.925 94.9198 213.845 96.0798H220.065V95.7198C220.065 94.6798 219.778 93.8864 219.205 93.3398C218.645 92.7798 217.932 92.4998 217.065 92.4998ZM224.818 98.8598C224.805 98.9264 224.798 99.0198 224.798 99.1398C224.798 99.8198 225.092 100.346 225.678 100.72C226.278 101.093 227.092 101.28 228.118 101.28C229.038 101.28 229.752 101.1 230.258 100.74C230.765 100.366 231.018 99.8798 231.018 99.2798C231.018 98.8131 230.872 98.4464 230.578 98.1798C230.298 97.9131 229.945 97.7131 229.518 97.5798C229.105 97.4331 228.545 97.2931 227.838 97.1598C227.025 96.9998 226.372 96.8398 225.878 96.6798C225.385 96.5064 224.965 96.2398 224.618 95.8798C224.272 95.5198 224.098 95.0198 224.098 94.3798C224.098 93.5531 224.432 92.8798 225.098 92.3598C225.765 91.8398 226.752 91.5798 228.058 91.5798C228.912 91.5798 229.618 91.7198 230.178 91.9998C230.738 92.2798 231.145 92.6331 231.398 93.0598C231.665 93.4731 231.798 93.8998 231.798 94.3398L231.778 94.6198H230.778V94.3598C230.778 93.9331 230.585 93.5198 230.198 93.1198C229.825 92.7064 229.052 92.4998 227.878 92.4998C226.745 92.4998 225.998 92.6931 225.638 93.0798C225.292 93.4664 225.118 93.8864 225.118 94.3398C225.118 94.7264 225.252 95.0398 225.518 95.2798C225.785 95.5198 226.118 95.7064 226.518 95.8398C226.918 95.9598 227.472 96.0931 228.178 96.2398C228.992 96.4131 229.658 96.5864 230.178 96.7598C230.698 96.9331 231.138 97.2064 231.498 97.5798C231.858 97.9531 232.038 98.4531 232.038 99.0798C232.038 100.173 231.658 100.966 230.898 101.46C230.152 101.953 229.138 102.2 227.858 102.2C226.885 102.2 226.092 102.046 225.478 101.74C224.878 101.433 224.445 101.06 224.178 100.62C223.925 100.18 223.798 99.7598 223.798 99.3598C223.798 99.1998 223.798 99.0798 223.798 98.9998C223.812 98.9198 223.818 98.8731 223.818 98.8598H224.818ZM92.2175 122.22C92.2175 123.046 92.0375 123.76 91.6775 124.36C91.3308 124.96 90.8575 125.42 90.2575 125.74C89.6575 126.046 88.9842 126.2 88.2375 126.2C87.3975 126.2 86.6508 126 85.9975 125.6C85.3575 125.186 84.8575 124.593 84.4975 123.82C84.1375 123.046 83.9575 122.12 83.9575 121.04V120.74C83.9575 119.66 84.1308 118.733 84.4775 117.96C84.8375 117.186 85.3375 116.6 85.9775 116.2C86.6308 115.786 87.3775 115.58 88.2175 115.58C88.9775 115.58 89.6575 115.746 90.2575 116.08C90.8708 116.4 91.3508 116.873 91.6975 117.5C92.0442 118.113 92.2175 118.853 92.2175 119.72V121H84.9775V121.16C84.9775 122.493 85.2775 123.513 85.8775 124.22C86.4908 124.926 87.2775 125.28 88.2375 125.28C89.0908 125.28 89.7975 125.02 90.3575 124.5C90.9308 123.98 91.2175 123.22 91.2175 122.22H92.2175ZM88.2175 116.5C87.3242 116.5 86.5842 116.806 85.9975 117.42C85.4108 118.033 85.0775 118.92 84.9975 120.08H91.2175V119.72C91.2175 118.68 90.9308 117.886 90.3575 117.34C89.7975 116.78 89.0842 116.5 88.2175 116.5ZM101.696 126L98.5559 121.58H98.5359L95.3559 126H94.1959L97.9959 120.76L94.3559 115.78H95.6359L98.5959 119.94H98.6159L101.616 115.78H102.776L99.1559 120.76L102.956 126H101.696ZM109.587 125.86C109.414 125.966 109.2 126.046 108.947 126.1C108.707 126.166 108.467 126.2 108.227 126.2C107.614 126.2 107.12 126.013 106.747 125.64C106.374 125.266 106.187 124.713 106.187 123.98V116.7H105.067V115.78H106.187L106.547 112.52H107.207V115.78H109.587V116.7H107.207V123.94C107.207 124.473 107.307 124.833 107.507 125.02C107.72 125.193 108 125.28 108.347 125.28C108.494 125.28 108.694 125.246 108.947 125.18C109.2 125.113 109.414 125.04 109.587 124.96V125.86ZM118.881 119.12C118.881 118.453 118.688 117.853 118.301 117.32C117.914 116.773 117.274 116.5 116.381 116.5C115.768 116.5 115.268 116.666 114.881 117C114.494 117.32 114.214 117.713 114.041 118.18C113.881 118.646 113.801 119.093 113.801 119.52V126H112.781V115.78H113.461L113.681 117.3C113.681 117.246 113.781 117.073 113.981 116.78C114.194 116.486 114.514 116.213 114.941 115.96C115.381 115.706 115.928 115.58 116.581 115.58C117.634 115.58 118.441 115.906 119.001 116.56C119.574 117.2 119.861 118 119.861 118.96C119.861 119.093 119.854 119.2 119.841 119.28C119.828 119.36 119.821 119.413 119.821 119.44H118.881V119.12ZM129.866 124.62C129.866 125.06 130.046 125.28 130.406 125.28C130.712 125.28 131.046 125.173 131.406 124.96V125.82C131.032 126.073 130.606 126.2 130.126 126.2C129.646 126.2 129.312 126.026 129.126 125.68C128.939 125.32 128.846 124.833 128.846 124.22C128.432 124.9 127.912 125.4 127.286 125.72C126.672 126.04 125.946 126.2 125.106 126.2C124.159 126.2 123.386 125.986 122.786 125.56C122.186 125.12 121.886 124.38 121.886 123.34C121.886 122.393 122.166 121.686 122.726 121.22C123.299 120.74 124.066 120.433 125.026 120.3C125.999 120.153 127.272 120.08 128.846 120.08V118.8C128.846 117.946 128.639 117.353 128.226 117.02C127.826 116.673 127.146 116.5 126.186 116.5C125.306 116.5 124.599 116.673 124.066 117.02C123.532 117.353 123.266 117.873 123.266 118.58V118.9H122.286C122.259 118.686 122.246 118.513 122.246 118.38C122.246 117.513 122.612 116.833 123.346 116.34C124.092 115.833 125.039 115.58 126.186 115.58C127.426 115.58 128.346 115.826 128.946 116.32C129.559 116.813 129.866 117.573 129.866 118.6V124.62ZM128.846 121C127.432 121 126.319 121.046 125.506 121.14C124.706 121.233 124.072 121.453 123.606 121.8C123.139 122.133 122.906 122.653 122.906 123.36C122.906 124.026 123.092 124.513 123.466 124.82C123.852 125.126 124.466 125.28 125.306 125.28C125.906 125.28 126.472 125.146 127.006 124.88C127.552 124.613 127.992 124.213 128.326 123.68C128.672 123.133 128.846 122.466 128.846 121.68V121ZM137.985 126.2C137.145 126.2 136.398 126 135.745 125.6C135.092 125.186 134.578 124.593 134.205 123.82C133.845 123.046 133.665 122.12 133.665 121.04V120.74C133.665 119.66 133.845 118.733 134.205 117.96C134.578 117.186 135.092 116.6 135.745 116.2C136.398 115.786 137.145 115.58 137.985 115.58C138.825 115.58 139.572 115.786 140.225 116.2C140.878 116.6 141.385 117.186 141.745 117.96C142.118 118.733 142.305 119.66 142.305 120.74V121.04C142.305 122.12 142.118 123.046 141.745 123.82C141.385 124.593 140.878 125.186 140.225 125.6C139.572 126 138.825 126.2 137.985 126.2ZM137.985 125.28C138.958 125.28 139.752 124.926 140.365 124.22C140.978 123.513 141.285 122.493 141.285 121.16V120.62C141.285 119.286 140.978 118.266 140.365 117.56C139.752 116.853 138.958 116.5 137.985 116.5C137.012 116.5 136.218 116.853 135.605 117.56C134.992 118.266 134.685 119.286 134.685 120.62V121.16C134.685 122.493 134.992 123.513 135.605 124.22C136.218 124.926 137.012 125.28 137.985 125.28ZM151.869 119.12C151.869 118.453 151.676 117.853 151.289 117.32C150.903 116.773 150.263 116.5 149.369 116.5C148.756 116.5 148.256 116.666 147.869 117C147.483 117.32 147.203 117.713 147.029 118.18C146.869 118.646 146.789 119.093 146.789 119.52V126H145.769V115.78H146.449L146.669 117.3C146.669 117.246 146.769 117.073 146.969 116.78C147.183 116.486 147.503 116.213 147.929 115.96C148.369 115.706 148.916 115.58 149.569 115.58C150.623 115.58 151.429 115.906 151.989 116.56C152.563 117.2 152.849 118 152.849 118.96C152.849 119.093 152.843 119.2 152.829 119.28C152.816 119.36 152.809 119.413 152.809 119.44H151.869V119.12ZM162.394 124.46C161.647 125.62 160.521 126.2 159.014 126.2C157.814 126.2 156.834 125.753 156.074 124.86C155.327 123.953 154.954 122.6 154.954 120.8V120.58C154.954 119.526 155.134 118.626 155.494 117.88C155.854 117.12 156.341 116.546 156.954 116.16C157.567 115.773 158.254 115.58 159.014 115.58C159.721 115.58 160.354 115.726 160.914 116.02C161.487 116.3 161.941 116.693 162.274 117.2V111.6H163.294V126H162.614L162.394 124.46ZM162.294 120.62C162.294 119.246 161.994 118.22 161.394 117.54C160.807 116.846 160.047 116.5 159.114 116.5C158.194 116.5 157.441 116.846 156.854 117.54C156.267 118.233 155.974 119.26 155.974 120.62V120.84C155.974 122.4 156.261 123.533 156.834 124.24C157.407 124.933 158.167 125.28 159.114 125.28C160.074 125.28 160.841 124.94 161.414 124.26C162.001 123.566 162.294 122.433 162.294 120.86V120.62ZM167.194 111.6H168.374V112.68H167.194V111.6ZM167.274 126V115.78H168.294V126H167.274ZM179.47 119.72C179.47 118.64 179.216 117.833 178.71 117.3C178.216 116.766 177.51 116.5 176.59 116.5C176.003 116.5 175.47 116.64 174.99 116.92C174.51 117.2 174.13 117.586 173.85 118.08C173.583 118.573 173.45 119.12 173.45 119.72V126H172.43V115.78H173.11L173.33 117.3C173.676 116.766 174.15 116.346 174.75 116.04C175.363 115.733 176.01 115.58 176.69 115.58C177.81 115.58 178.716 115.906 179.41 116.56C180.116 117.2 180.47 118.153 180.47 119.42V126H179.47V119.72ZM187.645 114.5L189.565 111.6H190.865V111.66L188.645 114.5H187.645ZM191.565 124.62C191.565 125.06 191.745 125.28 192.105 125.28C192.412 125.28 192.745 125.173 193.105 124.96V125.82C192.732 126.073 192.305 126.2 191.825 126.2C191.345 126.2 191.012 126.026 190.825 125.68C190.638 125.32 190.545 124.833 190.545 124.22C190.132 124.9 189.612 125.4 188.985 125.72C188.372 126.04 187.645 126.2 186.805 126.2C185.858 126.2 185.085 125.986 184.485 125.56C183.885 125.12 183.585 124.38 183.585 123.34C183.585 122.393 183.865 121.686 184.425 121.22C184.998 120.74 185.765 120.433 186.725 120.3C187.698 120.153 188.972 120.08 190.545 120.08V118.8C190.545 117.946 190.338 117.353 189.925 117.02C189.525 116.673 188.845 116.5 187.885 116.5C187.005 116.5 186.298 116.673 185.765 117.02C185.232 117.353 184.965 117.873 184.965 118.58V118.9H183.985C183.958 118.686 183.945 118.513 183.945 118.38C183.945 117.513 184.312 116.833 185.045 116.34C185.792 115.833 186.738 115.58 187.885 115.58C189.125 115.58 190.045 115.826 190.645 116.32C191.258 116.813 191.565 117.573 191.565 118.6V124.62ZM190.545 121C189.132 121 188.018 121.046 187.205 121.14C186.405 121.233 185.772 121.453 185.305 121.8C184.838 122.133 184.605 122.653 184.605 123.36C184.605 124.026 184.792 124.513 185.165 124.82C185.552 125.126 186.165 125.28 187.005 125.28C187.605 125.28 188.172 125.146 188.705 124.88C189.252 124.613 189.692 124.213 190.025 123.68C190.372 123.133 190.545 122.466 190.545 121.68V121ZM202.084 119.12C202.084 118.453 201.891 117.853 201.504 117.32C201.118 116.773 200.478 116.5 199.584 116.5C198.971 116.5 198.471 116.666 198.084 117C197.698 117.32 197.418 117.713 197.244 118.18C197.084 118.646 197.004 119.093 197.004 119.52V126H195.984V115.78H196.664L196.884 117.3C196.884 117.246 196.984 117.073 197.184 116.78C197.398 116.486 197.718 116.213 198.144 115.96C198.584 115.706 199.131 115.58 199.784 115.58C200.838 115.58 201.644 115.906 202.204 116.56C202.778 117.2 203.064 118 203.064 118.96C203.064 119.093 203.058 119.2 203.044 119.28C203.031 119.36 203.024 119.413 203.024 119.44H202.084V119.12ZM205.749 111.6H206.929V112.68H205.749V111.6ZM205.829 126V115.78H206.849V126H205.829ZM218.264 124.62C218.264 125.06 218.444 125.28 218.804 125.28C219.111 125.28 219.444 125.173 219.804 124.96V125.82C219.431 126.073 219.004 126.2 218.524 126.2C218.044 126.2 217.711 126.026 217.524 125.68C217.338 125.32 217.244 124.833 217.244 124.22C216.831 124.9 216.311 125.4 215.684 125.72C215.071 126.04 214.344 126.2 213.504 126.2C212.558 126.2 211.784 125.986 211.184 125.56C210.584 125.12 210.284 124.38 210.284 123.34C210.284 122.393 210.564 121.686 211.124 121.22C211.698 120.74 212.464 120.433 213.424 120.3C214.398 120.153 215.671 120.08 217.244 120.08V118.8C217.244 117.946 217.038 117.353 216.624 117.02C216.224 116.673 215.544 116.5 214.584 116.5C213.704 116.5 212.998 116.673 212.464 117.02C211.931 117.353 211.664 117.873 211.664 118.58V118.9H210.684C210.658 118.686 210.644 118.513 210.644 118.38C210.644 117.513 211.011 116.833 211.744 116.34C212.491 115.833 213.438 115.58 214.584 115.58C215.824 115.58 216.744 115.826 217.344 116.32C217.958 116.813 218.264 117.573 218.264 118.6V124.62ZM217.244 121C215.831 121 214.718 121.046 213.904 121.14C213.104 121.233 212.471 121.453 212.004 121.8C211.538 122.133 211.304 122.653 211.304 123.36C211.304 124.026 211.491 124.513 211.864 124.82C212.251 125.126 212.864 125.28 213.704 125.28C214.304 125.28 214.871 125.146 215.404 124.88C215.951 124.613 216.391 124.213 216.724 123.68C217.071 123.133 217.244 122.466 217.244 121.68V121ZM222.943 122.86C222.93 122.926 222.923 123.02 222.923 123.14C222.923 123.82 223.217 124.346 223.803 124.72C224.403 125.093 225.217 125.28 226.243 125.28C227.163 125.28 227.877 125.1 228.383 124.74C228.89 124.366 229.143 123.88 229.143 123.28C229.143 122.813 228.997 122.446 228.703 122.18C228.423 121.913 228.07 121.713 227.643 121.58C227.23 121.433 226.67 121.293 225.963 121.16C225.15 121 224.497 120.84 224.003 120.68C223.51 120.506 223.09 120.24 222.743 119.88C222.397 119.52 222.223 119.02 222.223 118.38C222.223 117.553 222.557 116.88 223.223 116.36C223.89 115.84 224.877 115.58 226.183 115.58C227.037 115.58 227.743 115.72 228.303 116C228.863 116.28 229.27 116.633 229.523 117.06C229.79 117.473 229.923 117.9 229.923 118.34L229.903 118.62H228.903V118.36C228.903 117.933 228.71 117.52 228.323 117.12C227.95 116.706 227.177 116.5 226.003 116.5C224.87 116.5 224.123 116.693 223.763 117.08C223.417 117.466 223.243 117.886 223.243 118.34C223.243 118.726 223.377 119.04 223.643 119.28C223.91 119.52 224.243 119.706 224.643 119.84C225.043 119.96 225.597 120.093 226.303 120.24C227.117 120.413 227.783 120.586 228.303 120.76C228.823 120.933 229.263 121.206 229.623 121.58C229.983 121.953 230.163 122.453 230.163 123.08C230.163 124.173 229.783 124.966 229.023 125.46C228.277 125.953 227.263 126.2 225.983 126.2C225.01 126.2 224.217 126.046 223.603 125.74C223.003 125.433 222.57 125.06 222.303 124.62C222.05 124.18 221.923 123.76 221.923 123.36C221.923 123.2 221.923 123.08 221.923 123C221.937 122.92 221.943 122.873 221.943 122.86H222.943ZM233.107 128.02C233.16 127.806 233.24 127.466 233.347 127C233.454 126.546 233.527 126.213 233.567 126H233.087V124.62H234.387V125.78L233.787 128.02H233.107ZM250.635 122.06C250.635 122.926 250.462 123.673 250.115 124.3C249.769 124.913 249.295 125.386 248.695 125.72C248.095 126.04 247.415 126.2 246.655 126.2C245.815 126.2 245.069 126 244.415 125.6C243.775 125.186 243.275 124.593 242.915 123.82C242.555 123.046 242.375 122.12 242.375 121.04V120.74C242.375 119.66 242.549 118.733 242.895 117.96C243.255 117.186 243.755 116.6 244.395 116.2C245.049 115.786 245.795 115.58 246.635 115.58C247.395 115.58 248.075 115.746 248.675 116.08C249.289 116.4 249.769 116.873 250.115 117.5C250.462 118.113 250.635 118.853 250.635 119.72H249.635C249.635 118.68 249.349 117.886 248.775 117.34C248.215 116.78 247.502 116.5 246.635 116.5C245.675 116.5 244.895 116.853 244.295 117.56C243.695 118.266 243.395 119.286 243.395 120.62V121.16C243.395 122.493 243.695 123.513 244.295 124.22C244.909 124.926 245.695 125.28 246.655 125.28C247.522 125.28 248.235 125.006 248.795 124.46C249.355 123.913 249.635 123.113 249.635 122.06H250.635ZM257.594 126.2C256.754 126.2 256.008 126 255.354 125.6C254.701 125.186 254.188 124.593 253.814 123.82C253.454 123.046 253.274 122.12 253.274 121.04V120.74C253.274 119.66 253.454 118.733 253.814 117.96C254.188 117.186 254.701 116.6 255.354 116.2C256.008 115.786 256.754 115.58 257.594 115.58C258.434 115.58 259.181 115.786 259.834 116.2C260.488 116.6 260.994 117.186 261.354 117.96C261.728 118.733 261.914 119.66 261.914 120.74V121.04C261.914 122.12 261.728 123.046 261.354 123.82C260.994 124.593 260.488 125.186 259.834 125.6C259.181 126 258.434 126.2 257.594 126.2ZM257.594 125.28C258.568 125.28 259.361 124.926 259.974 124.22C260.588 123.513 260.894 122.493 260.894 121.16V120.62C260.894 119.286 260.588 118.266 259.974 117.56C259.361 116.853 258.568 116.5 257.594 116.5C256.621 116.5 255.828 116.853 255.214 117.56C254.601 118.266 254.294 119.286 254.294 120.62V121.16C254.294 122.493 254.601 123.513 255.214 124.22C255.828 124.926 256.621 125.28 257.594 125.28ZM275.439 115.58C276.452 115.58 277.279 115.906 277.919 116.56C278.559 117.2 278.879 118.153 278.879 119.42V126H277.859V119.72C277.859 117.573 277.025 116.5 275.359 116.5C274.559 116.5 273.905 116.806 273.399 117.42C272.892 118.033 272.639 118.8 272.639 119.72V126H271.619V119.72C271.619 117.573 270.785 116.5 269.119 116.5C268.319 116.5 267.665 116.806 267.159 117.42C266.652 118.033 266.399 118.8 266.399 119.72V126H265.379V115.78H266.059L266.299 117.3C266.592 116.766 266.999 116.346 267.519 116.04C268.039 115.733 268.599 115.58 269.199 115.58C269.879 115.58 270.485 115.726 271.019 116.02C271.565 116.313 271.985 116.746 272.279 117.32C272.572 116.826 272.992 116.413 273.539 116.08C274.099 115.746 274.732 115.58 275.439 115.58ZM77.0157 146.86C77.0024 146.926 76.9957 147.02 76.9957 147.14C76.9957 147.82 77.289 148.346 77.8757 148.72C78.4757 149.093 79.289 149.28 80.3157 149.28C81.2357 149.28 81.949 149.1 82.4557 148.74C82.9624 148.366 83.2157 147.88 83.2157 147.28C83.2157 146.813 83.069 146.446 82.7757 146.18C82.4957 145.913 82.1424 145.713 81.7157 145.58C81.3024 145.433 80.7424 145.293 80.0357 145.16C79.2224 145 78.569 144.84 78.0757 144.68C77.5824 144.506 77.1624 144.24 76.8157 143.88C76.469 143.52 76.2957 143.02 76.2957 142.38C76.2957 141.553 76.629 140.88 77.2957 140.36C77.9624 139.84 78.949 139.58 80.2557 139.58C81.109 139.58 81.8157 139.72 82.3757 140C82.9357 140.28 83.3424 140.633 83.5957 141.06C83.8624 141.473 83.9957 141.9 83.9957 142.34L83.9757 142.62H82.9757V142.36C82.9757 141.933 82.7824 141.52 82.3957 141.12C82.0224 140.706 81.249 140.5 80.0757 140.5C78.9424 140.5 78.1957 140.693 77.8357 141.08C77.489 141.466 77.3157 141.886 77.3157 142.34C77.3157 142.726 77.449 143.04 77.7157 143.28C77.9824 143.52 78.3157 143.706 78.7157 143.84C79.1157 143.96 79.669 144.093 80.3757 144.24C81.189 144.413 81.8557 144.586 82.3757 144.76C82.8957 144.933 83.3357 145.206 83.6957 145.58C84.0557 145.953 84.2357 146.453 84.2357 147.08C84.2357 148.173 83.8557 148.966 83.0957 149.46C82.349 149.953 81.3357 150.2 80.0557 150.2C79.0824 150.2 78.289 150.046 77.6757 149.74C77.0757 149.433 76.6424 149.06 76.3757 148.62C76.1224 148.18 75.9957 147.76 75.9957 147.36C75.9957 147.2 75.9957 147.08 75.9957 147C76.009 146.92 76.0157 146.873 76.0157 146.86H77.0157ZM87.3993 135.6H88.5793V136.68H87.3993V135.6ZM87.4793 150V139.78H88.4993V150H87.4793ZM99.6746 143.72C99.6746 142.64 99.4213 141.833 98.9146 141.3C98.4213 140.766 97.7146 140.5 96.7946 140.5C96.2079 140.5 95.6746 140.64 95.1946 140.92C94.7146 141.2 94.3346 141.586 94.0546 142.08C93.7879 142.573 93.6546 143.12 93.6546 143.72V150H92.6346V139.78H93.3146L93.5346 141.3C93.8813 140.766 94.3546 140.346 94.9546 140.04C95.5679 139.733 96.2146 139.58 96.8946 139.58C98.0146 139.58 98.9213 139.906 99.6146 140.56C100.321 141.2 100.675 142.153 100.675 143.42V150H99.6746V143.72ZM110.91 148.66C111.603 148.66 112.17 148.886 112.61 149.34C113.05 149.793 113.27 150.36 113.27 151.04C113.27 151.546 113.143 152.006 112.89 152.42C112.65 152.833 112.31 153.16 111.87 153.4C111.443 153.64 110.957 153.76 110.41 153.76H106.07C105.603 153.76 105.177 153.64 104.79 153.4C104.403 153.16 104.097 152.846 103.87 152.46C103.657 152.073 103.55 151.66 103.55 151.22C103.55 150.726 103.683 150.266 103.95 149.84C104.217 149.4 104.577 149.086 105.03 148.9C104.43 148.54 104.13 148.006 104.13 147.3C104.13 146.833 104.27 146.433 104.55 146.1C104.843 145.753 105.243 145.48 105.75 145.28C105.323 144.973 104.99 144.606 104.75 144.18C104.51 143.753 104.39 143.293 104.39 142.8C104.39 141.853 104.717 141.08 105.37 140.48C106.023 139.88 106.997 139.58 108.29 139.58C109.157 139.58 109.897 139.726 110.51 140.02C111.003 139.886 111.41 139.64 111.73 139.28C112.05 138.92 112.243 138.473 112.31 137.94H113.27C113.27 138.526 113.083 139.073 112.71 139.58C112.35 140.086 111.877 140.38 111.29 140.46L111.27 140.54C111.563 140.793 111.79 141.12 111.95 141.52C112.11 141.906 112.19 142.333 112.19 142.8C112.19 143.746 111.863 144.52 111.21 145.12C110.557 145.706 109.583 146 108.29 146H106.65C106.223 146 105.863 146.12 105.57 146.36C105.29 146.6 105.15 146.926 105.15 147.34C105.15 147.753 105.29 148.08 105.57 148.32C105.85 148.546 106.21 148.66 106.65 148.66H110.91ZM111.17 142.8C111.17 142.146 110.91 141.6 110.39 141.16C109.883 140.72 109.183 140.5 108.29 140.5C107.397 140.5 106.69 140.72 106.17 141.16C105.663 141.6 105.41 142.146 105.41 142.8C105.41 143.453 105.663 144 106.17 144.44C106.69 144.88 107.397 145.1 108.29 145.1C109.183 145.1 109.883 144.88 110.39 144.44C110.91 144 111.17 143.453 111.17 142.8ZM110.47 152.84C110.95 152.84 111.363 152.666 111.71 152.32C112.07 151.986 112.25 151.58 112.25 151.1C112.25 150.713 112.11 150.373 111.83 150.08C111.55 149.786 111.217 149.64 110.83 149.64H106.15C105.71 149.64 105.33 149.793 105.01 150.1C104.703 150.42 104.55 150.8 104.55 151.24C104.55 151.68 104.703 152.053 105.01 152.36C105.33 152.68 105.71 152.84 106.15 152.84H110.47ZM122.797 148.48C122.451 149.013 121.984 149.433 121.397 149.74C120.811 150.046 120.177 150.2 119.497 150.2C118.377 150.2 117.471 149.88 116.777 149.24C116.097 148.6 115.757 147.64 115.757 146.36V139.78H116.777V146.06C116.777 147.14 117.024 147.946 117.517 148.48C118.024 149.013 118.737 149.28 119.657 149.28C120.244 149.28 120.777 149.14 121.257 148.86C121.737 148.58 122.111 148.193 122.377 147.7C122.657 147.206 122.797 146.66 122.797 146.06V139.78H123.817V148.62C123.817 149.06 123.997 149.28 124.357 149.28C124.664 149.28 124.997 149.173 125.357 148.96V149.82C124.984 150.073 124.557 150.2 124.077 150.2C123.624 150.2 123.297 150.033 123.097 149.7C122.897 149.353 122.797 148.946 122.797 148.48ZM128.301 150V135.6H129.321V150H128.301ZM140.852 148.62C140.852 149.06 141.032 149.28 141.392 149.28C141.699 149.28 142.032 149.173 142.392 148.96V149.82C142.019 150.073 141.592 150.2 141.112 150.2C140.632 150.2 140.299 150.026 140.112 149.68C139.925 149.32 139.832 148.833 139.832 148.22C139.419 148.9 138.899 149.4 138.272 149.72C137.659 150.04 136.932 150.2 136.092 150.2C135.145 150.2 134.372 149.986 133.772 149.56C133.172 149.12 132.872 148.38 132.872 147.34C132.872 146.393 133.152 145.686 133.712 145.22C134.285 144.74 135.052 144.433 136.012 144.3C136.985 144.153 138.259 144.08 139.832 144.08V142.8C139.832 141.946 139.625 141.353 139.212 141.02C138.812 140.673 138.132 140.5 137.172 140.5C136.292 140.5 135.585 140.673 135.052 141.02C134.519 141.353 134.252 141.873 134.252 142.58V142.9H133.272C133.245 142.686 133.232 142.513 133.232 142.38C133.232 141.513 133.599 140.833 134.332 140.34C135.079 139.833 136.025 139.58 137.172 139.58C138.412 139.58 139.332 139.826 139.932 140.32C140.545 140.813 140.852 141.573 140.852 142.6V148.62ZM139.832 145C138.419 145 137.305 145.046 136.492 145.14C135.692 145.233 135.059 145.453 134.592 145.8C134.125 146.133 133.892 146.653 133.892 147.36C133.892 148.026 134.079 148.513 134.452 148.82C134.839 149.126 135.452 149.28 136.292 149.28C136.892 149.28 137.459 149.146 137.992 148.88C138.539 148.613 138.979 148.213 139.312 147.68C139.659 147.133 139.832 146.466 139.832 145.68V145ZM151.371 143.12C151.371 142.453 151.178 141.853 150.791 141.32C150.405 140.773 149.765 140.5 148.871 140.5C148.258 140.5 147.758 140.666 147.371 141C146.985 141.32 146.705 141.713 146.531 142.18C146.371 142.646 146.291 143.093 146.291 143.52V150H145.271V139.78H145.951L146.171 141.3C146.171 141.246 146.271 141.073 146.471 140.78C146.685 140.486 147.005 140.213 147.431 139.96C147.871 139.706 148.418 139.58 149.071 139.58C150.125 139.58 150.931 139.906 151.491 140.56C152.065 141.2 152.351 142 152.351 142.96C152.351 143.093 152.345 143.2 152.331 143.28C152.318 143.36 152.311 143.413 152.311 143.44H151.371V143.12ZM155.036 135.6H156.216V136.68H155.036V135.6ZM155.116 150V139.78H156.136V150H155.116ZM167.091 148.46C166.345 149.62 165.218 150.2 163.711 150.2C162.511 150.2 161.531 149.753 160.771 148.86C160.025 147.953 159.651 146.6 159.651 144.8V144.58C159.651 143.526 159.831 142.626 160.191 141.88C160.551 141.12 161.038 140.546 161.651 140.16C162.265 139.773 162.951 139.58 163.711 139.58C164.418 139.58 165.051 139.726 165.611 140.02C166.185 140.3 166.638 140.693 166.971 141.2V135.6H167.991V150H167.311L167.091 148.46ZM166.991 144.62C166.991 143.246 166.691 142.22 166.091 141.54C165.505 140.846 164.745 140.5 163.811 140.5C162.891 140.5 162.138 140.846 161.551 141.54C160.965 142.233 160.671 143.26 160.671 144.62V144.84C160.671 146.4 160.958 147.533 161.531 148.24C162.105 148.933 162.865 149.28 163.811 149.28C164.771 149.28 165.538 148.94 166.111 148.26C166.698 147.566 166.991 146.433 166.991 144.86V144.62ZM179.211 148.62C179.211 149.06 179.391 149.28 179.751 149.28C180.058 149.28 180.391 149.173 180.751 148.96V149.82C180.378 150.073 179.951 150.2 179.471 150.2C178.991 150.2 178.658 150.026 178.471 149.68C178.285 149.32 178.191 148.833 178.191 148.22C177.778 148.9 177.258 149.4 176.631 149.72C176.018 150.04 175.291 150.2 174.451 150.2C173.505 150.2 172.731 149.986 172.131 149.56C171.531 149.12 171.231 148.38 171.231 147.34C171.231 146.393 171.511 145.686 172.071 145.22C172.645 144.74 173.411 144.433 174.371 144.3C175.345 144.153 176.618 144.08 178.191 144.08V142.8C178.191 141.946 177.985 141.353 177.571 141.02C177.171 140.673 176.491 140.5 175.531 140.5C174.651 140.5 173.945 140.673 173.411 141.02C172.878 141.353 172.611 141.873 172.611 142.58V142.9H171.631C171.605 142.686 171.591 142.513 171.591 142.38C171.591 141.513 171.958 140.833 172.691 140.34C173.438 139.833 174.385 139.58 175.531 139.58C176.771 139.58 177.691 139.826 178.291 140.32C178.905 140.813 179.211 141.573 179.211 142.6V148.62ZM178.191 145C176.778 145 175.665 145.046 174.851 145.14C174.051 145.233 173.418 145.453 172.951 145.8C172.485 146.133 172.251 146.653 172.251 147.36C172.251 148.026 172.438 148.513 172.811 148.82C173.198 149.126 173.811 149.28 174.651 149.28C175.251 149.28 175.818 149.146 176.351 148.88C176.898 148.613 177.338 148.213 177.671 147.68C178.018 147.133 178.191 146.466 178.191 145.68V145ZM190.451 148.46C189.704 149.62 188.577 150.2 187.071 150.2C185.871 150.2 184.891 149.753 184.131 148.86C183.384 147.953 183.011 146.6 183.011 144.8V144.58C183.011 143.526 183.191 142.626 183.551 141.88C183.911 141.12 184.397 140.546 185.011 140.16C185.624 139.773 186.311 139.58 187.071 139.58C187.777 139.58 188.411 139.726 188.971 140.02C189.544 140.3 189.997 140.693 190.331 141.2V135.6H191.351V150H190.671L190.451 148.46ZM190.351 144.62C190.351 143.246 190.051 142.22 189.451 141.54C188.864 140.846 188.104 140.5 187.171 140.5C186.251 140.5 185.497 140.846 184.911 141.54C184.324 142.233 184.031 143.26 184.031 144.62V144.84C184.031 146.4 184.317 147.533 184.891 148.24C185.464 148.933 186.224 149.28 187.171 149.28C188.131 149.28 188.897 148.94 189.471 148.26C190.057 147.566 190.351 146.433 190.351 144.86V144.62ZM202.911 146.22C202.911 147.046 202.731 147.76 202.371 148.36C202.024 148.96 201.551 149.42 200.951 149.74C200.351 150.046 199.678 150.2 198.931 150.2C198.091 150.2 197.344 150 196.691 149.6C196.051 149.186 195.551 148.593 195.191 147.82C194.831 147.046 194.651 146.12 194.651 145.04V144.74C194.651 143.66 194.824 142.733 195.171 141.96C195.531 141.186 196.031 140.6 196.671 140.2C197.324 139.786 198.071 139.58 198.911 139.58C199.671 139.58 200.351 139.746 200.951 140.08C201.564 140.4 202.044 140.873 202.391 141.5C202.738 142.113 202.911 142.853 202.911 143.72V145H195.671V145.16C195.671 146.493 195.971 147.513 196.571 148.22C197.184 148.926 197.971 149.28 198.931 149.28C199.784 149.28 200.491 149.02 201.051 148.5C201.624 147.98 201.911 147.22 201.911 146.22H202.911ZM198.911 140.5C198.018 140.5 197.278 140.806 196.691 141.42C196.104 142.033 195.771 142.92 195.691 144.08H201.911V143.72C201.911 142.68 201.624 141.886 201.051 141.34C200.491 140.78 199.778 140.5 198.911 140.5ZM218.907 146.22C218.907 147.046 218.727 147.76 218.367 148.36C218.02 148.96 217.547 149.42 216.947 149.74C216.347 150.046 215.674 150.2 214.927 150.2C214.087 150.2 213.34 150 212.687 149.6C212.047 149.186 211.547 148.593 211.187 147.82C210.827 147.046 210.647 146.12 210.647 145.04V144.74C210.647 143.66 210.82 142.733 211.167 141.96C211.527 141.186 212.027 140.6 212.667 140.2C213.32 139.786 214.067 139.58 214.907 139.58C215.667 139.58 216.347 139.746 216.947 140.08C217.56 140.4 218.04 140.873 218.387 141.5C218.734 142.113 218.907 142.853 218.907 143.72V145H211.667V145.16C211.667 146.493 211.967 147.513 212.567 148.22C213.18 148.926 213.967 149.28 214.927 149.28C215.78 149.28 216.487 149.02 217.047 148.5C217.62 147.98 217.907 147.22 217.907 146.22H218.907ZM214.907 140.5C214.014 140.5 213.274 140.806 212.687 141.42C212.1 142.033 211.767 142.92 211.687 144.08H217.907V143.72C217.907 142.68 217.62 141.886 217.047 141.34C216.487 140.78 215.774 140.5 214.907 140.5ZM232.46 139.58C233.474 139.58 234.3 139.906 234.94 140.56C235.58 141.2 235.9 142.153 235.9 143.42V150H234.88V143.72C234.88 141.573 234.047 140.5 232.38 140.5C231.58 140.5 230.927 140.806 230.42 141.42C229.914 142.033 229.66 142.8 229.66 143.72V150H228.64V143.72C228.64 141.573 227.807 140.5 226.14 140.5C225.34 140.5 224.687 140.806 224.18 141.42C223.674 142.033 223.42 142.8 223.42 143.72V150H222.4V139.78H223.08L223.32 141.3C223.614 140.766 224.02 140.346 224.54 140.04C225.06 139.733 225.62 139.58 226.22 139.58C226.9 139.58 227.507 139.726 228.04 140.02C228.587 140.313 229.007 140.746 229.3 141.32C229.594 140.826 230.014 140.413 230.56 140.08C231.12 139.746 231.754 139.58 232.46 139.58ZM252.247 146.06C252.247 146.926 252.073 147.673 251.727 148.3C251.38 148.913 250.907 149.386 250.307 149.72C249.707 150.04 249.027 150.2 248.267 150.2C247.427 150.2 246.68 150 246.027 149.6C245.387 149.186 244.887 148.593 244.527 147.82C244.167 147.046 243.987 146.12 243.987 145.04V144.74C243.987 143.66 244.16 142.733 244.507 141.96C244.867 141.186 245.367 140.6 246.007 140.2C246.66 139.786 247.407 139.58 248.247 139.58C249.007 139.58 249.687 139.746 250.287 140.08C250.9 140.4 251.38 140.873 251.727 141.5C252.073 142.113 252.247 142.853 252.247 143.72H251.247C251.247 142.68 250.96 141.886 250.387 141.34C249.827 140.78 249.113 140.5 248.247 140.5C247.287 140.5 246.507 140.853 245.907 141.56C245.307 142.266 245.007 143.286 245.007 144.62V145.16C245.007 146.493 245.307 147.513 245.907 148.22C246.52 148.926 247.307 149.28 248.267 149.28C249.133 149.28 249.847 149.006 250.407 148.46C250.967 147.913 251.247 147.113 251.247 146.06H252.247ZM262.786 148.62C262.786 149.06 262.966 149.28 263.326 149.28C263.632 149.28 263.966 149.173 264.326 148.96V149.82C263.952 150.073 263.526 150.2 263.046 150.2C262.566 150.2 262.232 150.026 262.046 149.68C261.859 149.32 261.766 148.833 261.766 148.22C261.352 148.9 260.832 149.4 260.206 149.72C259.592 150.04 258.866 150.2 258.026 150.2C257.079 150.2 256.306 149.986 255.706 149.56C255.106 149.12 254.806 148.38 254.806 147.34C254.806 146.393 255.086 145.686 255.646 145.22C256.219 144.74 256.986 144.433 257.946 144.3C258.919 144.153 260.192 144.08 261.766 144.08V142.8C261.766 141.946 261.559 141.353 261.146 141.02C260.746 140.673 260.066 140.5 259.106 140.5C258.226 140.5 257.519 140.673 256.986 141.02C256.452 141.353 256.186 141.873 256.186 142.58V142.9H255.206C255.179 142.686 255.166 142.513 255.166 142.38C255.166 141.513 255.532 140.833 256.266 140.34C257.012 139.833 257.959 139.58 259.106 139.58C260.346 139.58 261.266 139.826 261.866 140.32C262.479 140.813 262.786 141.573 262.786 142.6V148.62ZM261.766 145C260.352 145 259.239 145.046 258.426 145.14C257.626 145.233 256.992 145.453 256.526 145.8C256.059 146.133 255.826 146.653 255.826 147.36C255.826 148.026 256.012 148.513 256.386 148.82C256.772 149.126 257.386 149.28 258.226 149.28C258.826 149.28 259.392 149.146 259.926 148.88C260.472 148.613 260.912 148.213 261.246 147.68C261.592 147.133 261.766 146.466 261.766 145.68V145ZM274.025 148.46C273.278 149.62 272.152 150.2 270.645 150.2C269.445 150.2 268.465 149.753 267.705 148.86C266.958 147.953 266.585 146.6 266.585 144.8V144.58C266.585 143.526 266.765 142.626 267.125 141.88C267.485 141.12 267.972 140.546 268.585 140.16C269.198 139.773 269.885 139.58 270.645 139.58C271.352 139.58 271.985 139.726 272.545 140.02C273.118 140.3 273.572 140.693 273.905 141.2V135.6H274.925V150H274.245L274.025 148.46ZM273.925 144.62C273.925 143.246 273.625 142.22 273.025 141.54C272.438 140.846 271.678 140.5 270.745 140.5C269.825 140.5 269.072 140.846 268.485 141.54C267.898 142.233 267.605 143.26 267.605 144.62V144.84C267.605 146.4 267.892 147.533 268.465 148.24C269.038 148.933 269.798 149.28 270.745 149.28C271.705 149.28 272.472 148.94 273.045 148.26C273.632 147.566 273.925 146.433 273.925 144.86V144.62ZM286.145 148.62C286.145 149.06 286.325 149.28 286.685 149.28C286.992 149.28 287.325 149.173 287.685 148.96V149.82C287.312 150.073 286.885 150.2 286.405 150.2C285.925 150.2 285.592 150.026 285.405 149.68C285.218 149.32 285.125 148.833 285.125 148.22C284.712 148.9 284.192 149.4 283.565 149.72C282.952 150.04 282.225 150.2 281.385 150.2C280.438 150.2 279.665 149.986 279.065 149.56C278.465 149.12 278.165 148.38 278.165 147.34C278.165 146.393 278.445 145.686 279.005 145.22C279.578 144.74 280.345 144.433 281.305 144.3C282.278 144.153 283.552 144.08 285.125 144.08V142.8C285.125 141.946 284.918 141.353 284.505 141.02C284.105 140.673 283.425 140.5 282.465 140.5C281.585 140.5 280.878 140.673 280.345 141.02C279.812 141.353 279.545 141.873 279.545 142.58V142.9H278.565C278.538 142.686 278.525 142.513 278.525 142.38C278.525 141.513 278.892 140.833 279.625 140.34C280.372 139.833 281.318 139.58 282.465 139.58C283.705 139.58 284.625 139.826 285.225 140.32C285.838 140.813 286.145 141.573 286.145 142.6V148.62ZM285.125 145C283.712 145 282.598 145.046 281.785 145.14C280.985 145.233 280.352 145.453 279.885 145.8C279.418 146.133 279.185 146.653 279.185 147.36C279.185 148.026 279.372 148.513 279.745 148.82C280.132 149.126 280.745 149.28 281.585 149.28C282.185 149.28 282.752 149.146 283.285 148.88C283.832 148.613 284.272 148.213 284.605 147.68C284.952 147.133 285.125 146.466 285.125 145.68V145ZM152.941 172.46C152.194 173.62 151.068 174.2 149.561 174.2C148.361 174.2 147.381 173.753 146.621 172.86C145.874 171.953 145.501 170.6 145.501 168.8V168.58C145.501 167.526 145.681 166.626 146.041 165.88C146.401 165.12 146.888 164.546 147.501 164.16C148.114 163.773 148.801 163.58 149.561 163.58C150.268 163.58 150.901 163.726 151.461 164.02C152.034 164.3 152.488 164.693 152.821 165.2V159.6H153.841V174H153.161L152.941 172.46ZM152.841 168.62C152.841 167.246 152.541 166.22 151.941 165.54C151.354 164.846 150.594 164.5 149.661 164.5C148.741 164.5 147.988 164.846 147.401 165.54C146.814 166.233 146.521 167.26 146.521 168.62V168.84C146.521 170.4 146.808 171.533 147.381 172.24C147.954 172.933 148.714 173.28 149.661 173.28C150.621 173.28 151.388 172.94 151.961 172.26C152.548 171.566 152.841 170.433 152.841 168.86V168.62ZM165.401 170.22C165.401 171.046 165.221 171.76 164.861 172.36C164.514 172.96 164.041 173.42 163.441 173.74C162.841 174.046 162.168 174.2 161.421 174.2C160.581 174.2 159.834 174 159.181 173.6C158.541 173.186 158.041 172.593 157.681 171.82C157.321 171.046 157.141 170.12 157.141 169.04V168.74C157.141 167.66 157.314 166.733 157.661 165.96C158.021 165.186 158.521 164.6 159.161 164.2C159.814 163.786 160.561 163.58 161.401 163.58C162.161 163.58 162.841 163.746 163.441 164.08C164.054 164.4 164.534 164.873 164.881 165.5C165.228 166.113 165.401 166.853 165.401 167.72V169H158.161V169.16C158.161 170.493 158.461 171.513 159.061 172.22C159.674 172.926 160.461 173.28 161.421 173.28C162.274 173.28 162.981 173.02 163.541 172.5C164.114 171.98 164.401 171.22 164.401 170.22H165.401ZM161.401 164.5C160.508 164.5 159.768 164.806 159.181 165.42C158.594 166.033 158.261 166.92 158.181 168.08H164.401V167.72C164.401 166.68 164.114 165.886 163.541 165.34C162.981 164.78 162.268 164.5 161.401 164.5ZM172.614 173.86C172.441 173.966 172.228 174.046 171.974 174.1C171.734 174.166 171.494 174.2 171.254 174.2C170.641 174.2 170.148 174.013 169.774 173.64C169.401 173.266 169.214 172.713 169.214 171.98V164.7H168.094V163.78H169.214L169.574 160.52H170.234V163.78H172.614V164.7H170.234V171.94C170.234 172.473 170.334 172.833 170.534 173.02C170.748 173.193 171.028 173.28 171.374 173.28C171.521 173.28 171.721 173.246 171.974 173.18C172.228 173.113 172.441 173.04 172.614 172.96V173.86ZM183.088 172.62C183.088 173.06 183.268 173.28 183.628 173.28C183.935 173.28 184.268 173.173 184.628 172.96V173.82C184.255 174.073 183.828 174.2 183.348 174.2C182.868 174.2 182.535 174.026 182.348 173.68C182.162 173.32 182.068 172.833 182.068 172.22C181.655 172.9 181.135 173.4 180.508 173.72C179.895 174.04 179.168 174.2 178.328 174.2C177.382 174.2 176.608 173.986 176.008 173.56C175.408 173.12 175.108 172.38 175.108 171.34C175.108 170.393 175.388 169.686 175.948 169.22C176.522 168.74 177.288 168.433 178.248 168.3C179.222 168.153 180.495 168.08 182.068 168.08V166.8C182.068 165.946 181.862 165.353 181.448 165.02C181.048 164.673 180.368 164.5 179.408 164.5C178.528 164.5 177.822 164.673 177.288 165.02C176.755 165.353 176.488 165.873 176.488 166.58V166.9H175.508C175.482 166.686 175.468 166.513 175.468 166.38C175.468 165.513 175.835 164.833 176.568 164.34C177.315 163.833 178.262 163.58 179.408 163.58C180.648 163.58 181.568 163.826 182.168 164.32C182.782 164.813 183.088 165.573 183.088 166.6V172.62ZM182.068 169C180.655 169 179.542 169.046 178.728 169.14C177.928 169.233 177.295 169.453 176.828 169.8C176.362 170.133 176.128 170.653 176.128 171.36C176.128 172.026 176.315 172.513 176.688 172.82C177.075 173.126 177.688 173.28 178.528 173.28C179.128 173.28 179.695 173.146 180.228 172.88C180.775 172.613 181.215 172.213 181.548 171.68C181.895 171.133 182.068 170.466 182.068 169.68V169ZM187.588 174V159.6H188.608V174H187.588ZM199.899 167.72C199.899 166.64 199.646 165.833 199.139 165.3C198.646 164.766 197.939 164.5 197.019 164.5C196.433 164.5 195.899 164.64 195.419 164.92C194.939 165.2 194.559 165.586 194.279 166.08C194.013 166.573 193.879 167.12 193.879 167.72V174H192.859V159.6H193.879V165.22C194.213 164.7 194.679 164.3 195.279 164.02C195.879 163.726 196.493 163.58 197.119 163.58C198.239 163.58 199.153 163.906 199.859 164.56C200.566 165.2 200.919 166.153 200.919 167.42V174H199.899V167.72ZM212.335 170.22C212.335 171.046 212.155 171.76 211.795 172.36C211.448 172.96 210.975 173.42 210.375 173.74C209.775 174.046 209.101 174.2 208.355 174.2C207.515 174.2 206.768 174 206.115 173.6C205.475 173.186 204.975 172.593 204.615 171.82C204.255 171.046 204.075 170.12 204.075 169.04V168.74C204.075 167.66 204.248 166.733 204.595 165.96C204.955 165.186 205.455 164.6 206.095 164.2C206.748 163.786 207.495 163.58 208.335 163.58C209.095 163.58 209.775 163.746 210.375 164.08C210.988 164.4 211.468 164.873 211.815 165.5C212.161 166.113 212.335 166.853 212.335 167.72V169H205.095V169.16C205.095 170.493 205.395 171.513 205.995 172.22C206.608 172.926 207.395 173.28 208.355 173.28C209.208 173.28 209.915 173.02 210.475 172.5C211.048 171.98 211.335 171.22 211.335 170.22H212.335ZM208.335 164.5C207.441 164.5 206.701 164.806 206.115 165.42C205.528 166.033 205.195 166.92 205.115 168.08H211.335V167.72C211.335 166.68 211.048 165.886 210.475 165.34C209.915 164.78 209.201 164.5 208.335 164.5ZM217.028 160.28L216.788 171.18H215.968L215.748 160.28H217.028ZM215.728 172.62H217.028V174H215.728V172.62Z" fill="#1E1E1E"/>
</g>
<defs>
<filter id="filter0_i_63_17" x="75.9956" y="87.5997" width="211.689" height="90.6" filterUnits="userSpaceOnUse" color-interpolation-filters="sRGB">
<feFlood flood-opacity="0" result="BackgroundImageFix"/>
<feBlend mode="normal" in="SourceGraphic" in2="BackgroundImageFix" result="shape"/>
<feColorMatrix in="SourceAlpha" type="matrix" values="0 0 0 0 0 0 0 0 0 0 0 0 0 0 0 0 0 0 127 0" result="hardAlpha"/>
<feOffset dy="4"/>
<feGaussianBlur stdDeviation="2"/>
<feComposite in2="hardAlpha" operator="arithmetic" k2="-1" k3="1"/>
<feColorMatrix type="matrix" values="0 0 0 0 0 0 0 0 0 0 0 0 0 0 0 0 0 0 0.25 0"/>
<feBlend mode="normal" in2="shape" result="effect1_innerShadow_63_17"/>
</filter>
</defs>
</svg>
