<svg width="64" height="93" viewBox="0 0 64 93" fill="none" xmlns="http://www.w3.org/2000/svg">
<path d="M55.9081 31.1892L55.2708 31.6072L55.9081 32.0253C60.4484 35.0037 63.4633 40.1616 63.5 46.01C63.499 55.1972 56.0171 62.7145 46.7937 62.7145H46.4196C42.0993 62.7145 38.1398 61.0447 35.1591 58.3547L34.3241 57.6012V58.7259V74.623C34.3241 83.9198 26.6957 91.5164 17.3185 91.5164C8.05286 91.5164 0.5 84.0313 0.5 74.81C0.5 68.9634 3.51374 63.8059 8.0545 60.8272L8.6918 60.4091L8.0545 59.991C3.51374 57.0123 0.5 51.8548 0.5 46.0082C0.5 40.1615 3.51374 35.0041 8.0545 32.0253L8.6918 31.6072L8.0545 31.1892C3.51374 28.2104 0.5 23.053 0.5 17.2063C0.5 8.01828 7.98229 0.5 17.2063 0.5H46.7563C55.9443 0.5 63.4626 7.98228 63.4626 17.2063C63.4626 23.053 60.4488 28.2104 55.9081 31.1892ZM17.2063 62.7145L17.2034 62.7145C10.5723 62.7535 5.14816 68.136 5.14816 74.81C5.14816 81.4856 10.6119 86.9056 17.3185 86.9056C24.1385 86.9056 29.6759 81.3723 29.6759 74.623V63.2145V62.7145H29.1759L17.2063 62.7145ZM29.7133 34.4126V33.9126H29.2133H17.2437C10.5713 33.9126 5.14816 39.3358 5.14816 46.0082C5.14816 52.6785 10.5318 58.1037 17.2063 58.1037H29.1759H29.2133H29.7133V57.6037V34.4126ZM29.1759 29.3019H29.6759V28.8019V5.61075V5.11075H29.1759H17.2063C10.5339 5.11075 5.11075 10.5339 5.11075 17.2063C5.11075 23.8787 10.5339 29.3019 17.2063 29.3019H29.1759ZM34.7867 5.11075H34.2867V5.61075V28.8019V29.3019H34.7867H46.7563C53.4287 29.3019 58.8518 23.8787 58.8518 17.2063C58.8518 10.5339 53.4287 5.11075 46.7563 5.11075H34.7867ZM46.3822 58.1037H46.7563C53.4287 58.1037 58.8518 52.6806 58.8518 46.0082C58.8518 39.3358 53.4287 33.9126 46.7563 33.9126H46.3822C39.7098 33.9126 34.2867 39.3358 34.2867 46.0082C34.2867 52.6806 39.7098 58.1037 46.3822 58.1037Z" stroke="#1E1E1E"/>
</svg>
