<svg width="258" height="87" viewBox="0 0 258 87" fill="none" xmlns="http://www.w3.org/2000/svg">
<path d="M70.844 52H72.032V77.956H80.384V79H70.844V52ZM91.2284 86.488C89.8604 86.488 88.5284 86.176 87.2324 85.552C85.9364 84.928 84.9284 84.112 84.2084 83.104V81.448C84.8324 82.6 85.8044 83.56 87.1244 84.328C88.4684 85.096 89.8364 85.48 91.2284 85.48C93.5324 85.48 95.3084 84.796 96.5564 83.428C97.8044 82.084 98.4284 80.104 98.4284 77.488V75.076C97.7804 76.372 96.7604 77.428 95.3684 78.244C94.0004 79.036 92.5604 79.432 91.0484 79.432C89.5124 79.432 88.0844 79.048 86.7644 78.28C85.4444 77.512 84.4004 76.48 83.6324 75.184C82.8644 73.864 82.4804 72.448 82.4804 70.936C82.4804 69.424 82.8644 68.02 83.6324 66.724C84.4004 65.404 85.4444 64.36 86.7644 63.592C88.0844 62.824 89.5124 62.44 91.0484 62.44C92.6324 62.44 94.0964 62.836 95.4404 63.628C96.7844 64.42 97.7804 65.488 98.4284 66.832V62.8H99.5804V77.488C99.5804 80.44 98.8604 82.672 97.4204 84.184C96.0044 85.72 93.9404 86.488 91.2284 86.488ZM91.1204 78.424C92.4404 78.424 93.6644 78.088 94.7924 77.416C95.9204 76.72 96.8084 75.808 97.4564 74.68C98.1284 73.528 98.4644 72.28 98.4644 70.936C98.4644 69.592 98.1284 68.356 97.4564 67.228C96.8084 66.076 95.9204 65.164 94.7924 64.492C93.6644 63.796 92.4404 63.448 91.1204 63.448C89.7764 63.448 88.5284 63.796 87.3764 64.492C86.2484 65.164 85.3364 66.076 84.6404 67.228C83.9684 68.356 83.6324 69.592 83.6324 70.936C83.6324 72.28 83.9684 73.528 84.6404 74.68C85.3364 75.808 86.2484 76.72 87.3764 77.416C88.5284 78.088 89.7764 78.424 91.1204 78.424ZM109.919 79.216C108.143 79.216 106.667 78.676 105.491 77.596C104.339 76.516 103.763 75.028 103.763 73.132V56.284H104.915V62.8H109.883V63.808H104.915V73.132C104.915 74.716 105.383 75.964 106.319 76.876C107.279 77.764 108.479 78.208 109.919 78.208V79.216ZM118.744 79.216C116.968 79.216 115.492 78.676 114.316 77.596C113.164 76.516 112.588 75.028 112.588 73.132V56.284H113.74V62.8H118.708V63.808H113.74V73.132C113.74 74.716 114.208 75.964 115.144 76.876C116.104 77.764 117.304 78.208 118.744 78.208V79.216ZM135.02 79.72C132.5 79.72 130.184 79.108 128.072 77.884C125.96 76.636 124.28 74.932 123.032 72.772C121.808 70.588 121.196 68.14 121.196 65.428C121.196 62.812 121.832 60.424 123.104 58.264C124.4 56.104 126.116 54.4 128.252 53.152C130.412 51.904 132.704 51.28 135.128 51.28C136.808 51.28 138.14 51.436 139.124 51.748C140.108 52.036 141.248 52.552 142.544 53.296V54.628C141.32 53.788 140.18 53.2 139.124 52.864C138.092 52.504 136.796 52.324 135.236 52.324C132.86 52.324 130.688 52.936 128.72 54.16C126.776 55.36 125.228 56.98 124.076 59.02C122.948 61.036 122.384 63.208 122.384 65.536C122.384 67.888 122.96 70.072 124.112 72.088C125.264 74.104 126.788 75.712 128.684 76.912C130.604 78.088 132.668 78.676 134.876 78.676C136.46 78.676 137.84 78.496 139.016 78.136C140.192 77.752 141.368 77.164 142.544 76.372V77.704C141.392 78.4 140.204 78.904 138.98 79.216C137.78 79.552 136.46 79.72 135.02 79.72ZM154.085 79.576C152.453 79.576 150.977 79.18 149.657 78.388C148.337 77.572 147.305 76.504 146.561 75.184C145.817 73.84 145.445 72.388 145.445 70.828C145.445 69.292 145.817 67.864 146.561 66.544C147.329 65.224 148.361 64.18 149.657 63.412C150.977 62.62 152.441 62.224 154.049 62.224C155.633 62.224 157.073 62.62 158.369 63.412C159.689 64.18 160.721 65.224 161.465 66.544C162.209 67.864 162.581 69.292 162.581 70.828C162.581 72.436 162.221 73.912 161.501 75.256C160.781 76.576 159.773 77.632 158.477 78.424C157.205 79.192 155.741 79.576 154.085 79.576ZM154.085 78.568C155.453 78.568 156.701 78.22 157.829 77.524C158.957 76.828 159.833 75.904 160.457 74.752C161.105 73.576 161.429 72.292 161.429 70.9C161.429 69.532 161.105 68.26 160.457 67.084C159.809 65.908 158.921 64.972 157.793 64.276C156.665 63.58 155.417 63.232 154.049 63.232C152.681 63.232 151.421 63.592 150.269 64.312C149.141 65.008 148.241 65.944 147.569 67.12C146.921 68.296 146.597 69.568 146.597 70.936C146.597 72.304 146.921 73.576 147.569 74.752C148.241 75.904 149.141 76.828 150.269 77.524C151.421 78.22 152.693 78.568 154.085 78.568ZM173.806 79.396C172.246 79.396 170.806 79.012 169.486 78.244C168.19 77.476 167.158 76.444 166.39 75.148C165.622 73.852 165.238 72.436 165.238 70.9C165.238 69.364 165.622 67.948 166.39 66.652C167.158 65.356 168.19 64.324 169.486 63.556C170.806 62.788 172.246 62.404 173.806 62.404C175.318 62.404 176.758 62.812 178.126 63.628C179.494 64.42 180.502 65.464 181.15 66.76V52H182.302V79H181.15V75.076C180.43 76.372 179.386 77.416 178.018 78.208C176.674 79 175.27 79.396 173.806 79.396ZM173.77 78.388C175.09 78.388 176.314 78.052 177.442 77.38C178.594 76.684 179.506 75.772 180.178 74.644C180.874 73.492 181.222 72.256 181.222 70.936C181.222 69.616 180.874 68.38 180.178 67.228C179.506 66.076 178.594 65.152 177.442 64.456C176.314 63.76 175.09 63.412 173.77 63.412C172.45 63.412 171.226 63.76 170.098 64.456C168.97 65.128 168.07 66.04 167.398 67.192C166.726 68.344 166.39 69.58 166.39 70.9C166.39 72.244 166.714 73.492 167.362 74.644C168.034 75.772 168.934 76.684 170.062 77.38C171.214 78.052 172.45 78.388 173.77 78.388ZM194.73 78.424C195.978 78.424 197.166 78.1 198.294 77.452C199.422 76.804 200.358 75.916 201.102 74.788V76.624C200.214 77.608 199.242 78.328 198.186 78.784C197.13 79.216 195.93 79.432 194.586 79.432C193.098 79.432 191.694 79.036 190.374 78.244C189.078 77.452 188.034 76.396 187.242 75.076C186.474 73.756 186.09 72.352 186.09 70.864C186.09 69.256 186.474 67.816 187.242 66.544C188.01 65.248 189.054 64.24 190.374 63.52C191.718 62.8 193.206 62.44 194.838 62.44C197.334 62.44 199.458 63.424 201.21 65.392L189.906 76.552C190.698 77.2 191.466 77.68 192.21 77.992C192.954 78.28 193.794 78.424 194.73 78.424ZM187.242 70.756C187.242 72.748 187.902 74.452 189.222 75.868L199.77 65.392C198.978 64.696 198.21 64.204 197.466 63.916C196.722 63.604 195.834 63.448 194.802 63.448C193.338 63.448 192.03 63.772 190.878 64.42C189.75 65.044 188.862 65.908 188.214 67.012C187.566 68.116 187.242 69.364 187.242 70.756ZM205.387 52H206.575V77.956H214.927V79H205.387V52ZM225.591 79.396C224.055 79.396 222.627 79.012 221.307 78.244C219.987 77.476 218.943 76.444 218.175 75.148C217.407 73.828 217.023 72.412 217.023 70.9C217.023 69.388 217.407 67.984 218.175 66.688C218.943 65.368 219.987 64.324 221.307 63.556C222.627 62.788 224.055 62.404 225.591 62.404C227.151 62.404 228.627 62.824 230.019 63.664C231.411 64.48 232.383 65.548 232.935 66.868V62.8H234.087V79H232.935V74.968C232.287 76.312 231.279 77.392 229.911 78.208C228.567 79 227.127 79.396 225.591 79.396ZM225.663 78.388C226.983 78.388 228.207 78.052 229.335 77.38C230.463 76.684 231.351 75.772 231.999 74.644C232.671 73.492 233.007 72.244 233.007 70.9C233.007 69.58 232.671 68.344 231.999 67.192C231.327 66.04 230.427 65.128 229.299 64.456C228.171 63.76 226.947 63.412 225.627 63.412C224.307 63.412 223.071 63.76 221.919 64.456C220.791 65.152 219.879 66.076 219.183 67.228C218.511 68.38 218.175 69.616 218.175 70.936C218.175 72.256 218.511 73.492 219.183 74.644C219.879 75.772 220.803 76.684 221.955 77.38C223.107 78.052 224.343 78.388 225.663 78.388ZM247.127 79.396C245.663 79.396 244.247 79 242.879 78.208C241.535 77.416 240.503 76.372 239.783 75.076V79H238.631V52H239.783V66.904C240.431 65.536 241.439 64.444 242.807 63.628C244.175 62.812 245.615 62.404 247.127 62.404C248.687 62.404 250.115 62.788 251.411 63.556C252.731 64.324 253.775 65.356 254.543 66.652C255.311 67.948 255.695 69.364 255.695 70.9C255.695 72.436 255.311 73.852 254.543 75.148C253.775 76.444 252.731 77.476 251.411 78.244C250.115 79.012 248.687 79.396 247.127 79.396ZM247.199 78.388C248.519 78.388 249.743 78.052 250.871 77.38C251.999 76.684 252.887 75.772 253.535 74.644C254.207 73.492 254.543 72.244 254.543 70.9C254.543 69.58 254.207 68.344 253.535 67.192C252.863 66.04 251.963 65.128 250.835 64.456C249.707 63.76 248.483 63.412 247.163 63.412C245.843 63.412 244.607 63.76 243.455 64.456C242.327 65.152 241.415 66.076 240.719 67.228C240.047 68.38 239.711 69.616 239.711 70.936C239.711 72.256 240.047 73.492 240.719 74.644C241.415 75.772 242.339 76.684 243.491 77.38C244.643 78.052 245.879 78.388 247.199 78.388Z" fill="#1E1E1E"/>
<path d="M34 79H10.1126C5.97179 79 3.62559 74.2547 6.13956 70.9644L17 56.75L25.5 45.625C28.2566 42.0171 29.75 37.6027 29.75 33.0622V1H38.25V33.0622C38.25 37.6027 39.7434 42.0171 42.5 45.625L51 56.75L61.8604 70.9644C64.3744 74.2547 62.0282 79 57.8874 79H34Z" stroke="#1E1E1E"/>
<path d="M20 52.5L22.1302 53.3521C24.0339 54.1136 26.0353 54.6035 28.0755 54.8075L28.5258 54.8526C29.5067 54.9507 30.4943 54.962 31.4772 54.8864L34.3851 54.6627C35.7645 54.5566 37.0823 54.0471 38.1743 53.1978V53.1978C39.9503 51.8165 42.2787 51.3653 44.442 51.9834L48 53" stroke="#1E1E1E"/>
</svg>
