<svg width="282" height="100" viewBox="0 0 282 100" fill="none" xmlns="http://www.w3.org/2000/svg">
<rect x="0.5" y="0.5" width="281" height="99" fill="white" stroke="#1E1E1E"/>
<path d="M82.844 59H84.032V84.956H92.384V86H82.844V59ZM103.228 93.488C101.86 93.488 100.528 93.176 99.2324 92.552C97.9364 91.928 96.9284 91.112 96.2084 90.104V88.448C96.8324 89.6 97.8044 90.56 99.1244 91.328C100.468 92.096 101.836 92.48 103.228 92.48C105.532 92.48 107.308 91.796 108.556 90.428C109.804 89.084 110.428 87.104 110.428 84.488V82.076C109.78 83.372 108.76 84.428 107.368 85.244C106 86.036 104.56 86.432 103.048 86.432C101.512 86.432 100.084 86.048 98.7644 85.28C97.4444 84.512 96.4004 83.48 95.6324 82.184C94.8644 80.864 94.4804 79.448 94.4804 77.936C94.4804 76.424 94.8644 75.02 95.6324 73.724C96.4004 72.404 97.4444 71.36 98.7644 70.592C100.084 69.824 101.512 69.44 103.048 69.44C104.632 69.44 106.096 69.836 107.44 70.628C108.784 71.42 109.78 72.488 110.428 73.832V69.8H111.58V84.488C111.58 87.44 110.86 89.672 109.42 91.184C108.004 92.72 105.94 93.488 103.228 93.488ZM103.12 85.424C104.44 85.424 105.664 85.088 106.792 84.416C107.92 83.72 108.808 82.808 109.456 81.68C110.128 80.528 110.464 79.28 110.464 77.936C110.464 76.592 110.128 75.356 109.456 74.228C108.808 73.076 107.92 72.164 106.792 71.492C105.664 70.796 104.44 70.448 103.12 70.448C101.776 70.448 100.528 70.796 99.3764 71.492C98.2484 72.164 97.3364 73.076 96.6404 74.228C95.9684 75.356 95.6324 76.592 95.6324 77.936C95.6324 79.28 95.9684 80.528 96.6404 81.68C97.3364 82.808 98.2484 83.72 99.3764 84.416C100.528 85.088 101.776 85.424 103.12 85.424ZM121.919 86.216C120.143 86.216 118.667 85.676 117.491 84.596C116.339 83.516 115.763 82.028 115.763 80.132V63.284H116.915V69.8H121.883V70.808H116.915V80.132C116.915 81.716 117.383 82.964 118.319 83.876C119.279 84.764 120.479 85.208 121.919 85.208V86.216ZM130.744 86.216C128.968 86.216 127.492 85.676 126.316 84.596C125.164 83.516 124.588 82.028 124.588 80.132V63.284H125.74V69.8H130.708V70.808H125.74V80.132C125.74 81.716 126.208 82.964 127.144 83.876C128.104 84.764 129.304 85.208 130.744 85.208V86.216ZM147.02 86.72C144.5 86.72 142.184 86.108 140.072 84.884C137.96 83.636 136.28 81.932 135.032 79.772C133.808 77.588 133.196 75.14 133.196 72.428C133.196 69.812 133.832 67.424 135.104 65.264C136.4 63.104 138.116 61.4 140.252 60.152C142.412 58.904 144.704 58.28 147.128 58.28C148.808 58.28 150.14 58.436 151.124 58.748C152.108 59.036 153.248 59.552 154.544 60.296V61.628C153.32 60.788 152.18 60.2 151.124 59.864C150.092 59.504 148.796 59.324 147.236 59.324C144.86 59.324 142.688 59.936 140.72 61.16C138.776 62.36 137.228 63.98 136.076 66.02C134.948 68.036 134.384 70.208 134.384 72.536C134.384 74.888 134.96 77.072 136.112 79.088C137.264 81.104 138.788 82.712 140.684 83.912C142.604 85.088 144.668 85.676 146.876 85.676C148.46 85.676 149.84 85.496 151.016 85.136C152.192 84.752 153.368 84.164 154.544 83.372V84.704C153.392 85.4 152.204 85.904 150.98 86.216C149.78 86.552 148.46 86.72 147.02 86.72ZM166.085 86.576C164.453 86.576 162.977 86.18 161.657 85.388C160.337 84.572 159.305 83.504 158.561 82.184C157.817 80.84 157.445 79.388 157.445 77.828C157.445 76.292 157.817 74.864 158.561 73.544C159.329 72.224 160.361 71.18 161.657 70.412C162.977 69.62 164.441 69.224 166.049 69.224C167.633 69.224 169.073 69.62 170.369 70.412C171.689 71.18 172.721 72.224 173.465 73.544C174.209 74.864 174.581 76.292 174.581 77.828C174.581 79.436 174.221 80.912 173.501 82.256C172.781 83.576 171.773 84.632 170.477 85.424C169.205 86.192 167.741 86.576 166.085 86.576ZM166.085 85.568C167.453 85.568 168.701 85.22 169.829 84.524C170.957 83.828 171.833 82.904 172.457 81.752C173.105 80.576 173.429 79.292 173.429 77.9C173.429 76.532 173.105 75.26 172.457 74.084C171.809 72.908 170.921 71.972 169.793 71.276C168.665 70.58 167.417 70.232 166.049 70.232C164.681 70.232 163.421 70.592 162.269 71.312C161.141 72.008 160.241 72.944 159.569 74.12C158.921 75.296 158.597 76.568 158.597 77.936C158.597 79.304 158.921 80.576 159.569 81.752C160.241 82.904 161.141 83.828 162.269 84.524C163.421 85.22 164.693 85.568 166.085 85.568ZM185.806 86.396C184.246 86.396 182.806 86.012 181.486 85.244C180.19 84.476 179.158 83.444 178.39 82.148C177.622 80.852 177.238 79.436 177.238 77.9C177.238 76.364 177.622 74.948 178.39 73.652C179.158 72.356 180.19 71.324 181.486 70.556C182.806 69.788 184.246 69.404 185.806 69.404C187.318 69.404 188.758 69.812 190.126 70.628C191.494 71.42 192.502 72.464 193.15 73.76V59H194.302V86H193.15V82.076C192.43 83.372 191.386 84.416 190.018 85.208C188.674 86 187.27 86.396 185.806 86.396ZM185.77 85.388C187.09 85.388 188.314 85.052 189.442 84.38C190.594 83.684 191.506 82.772 192.178 81.644C192.874 80.492 193.222 79.256 193.222 77.936C193.222 76.616 192.874 75.38 192.178 74.228C191.506 73.076 190.594 72.152 189.442 71.456C188.314 70.76 187.09 70.412 185.77 70.412C184.45 70.412 183.226 70.76 182.098 71.456C180.97 72.128 180.07 73.04 179.398 74.192C178.726 75.344 178.39 76.58 178.39 77.9C178.39 79.244 178.714 80.492 179.362 81.644C180.034 82.772 180.934 83.684 182.062 84.38C183.214 85.052 184.45 85.388 185.77 85.388ZM206.73 85.424C207.978 85.424 209.166 85.1 210.294 84.452C211.422 83.804 212.358 82.916 213.102 81.788V83.624C212.214 84.608 211.242 85.328 210.186 85.784C209.13 86.216 207.93 86.432 206.586 86.432C205.098 86.432 203.694 86.036 202.374 85.244C201.078 84.452 200.034 83.396 199.242 82.076C198.474 80.756 198.09 79.352 198.09 77.864C198.09 76.256 198.474 74.816 199.242 73.544C200.01 72.248 201.054 71.24 202.374 70.52C203.718 69.8 205.206 69.44 206.838 69.44C209.334 69.44 211.458 70.424 213.21 72.392L201.906 83.552C202.698 84.2 203.466 84.68 204.21 84.992C204.954 85.28 205.794 85.424 206.73 85.424ZM199.242 77.756C199.242 79.748 199.902 81.452 201.222 82.868L211.77 72.392C210.978 71.696 210.21 71.204 209.466 70.916C208.722 70.604 207.834 70.448 206.802 70.448C205.338 70.448 204.03 70.772 202.878 71.42C201.75 72.044 200.862 72.908 200.214 74.012C199.566 75.116 199.242 76.364 199.242 77.756ZM217.387 59H218.575V84.956H226.927V86H217.387V59ZM237.591 86.396C236.055 86.396 234.627 86.012 233.307 85.244C231.987 84.476 230.943 83.444 230.175 82.148C229.407 80.828 229.023 79.412 229.023 77.9C229.023 76.388 229.407 74.984 230.175 73.688C230.943 72.368 231.987 71.324 233.307 70.556C234.627 69.788 236.055 69.404 237.591 69.404C239.151 69.404 240.627 69.824 242.019 70.664C243.411 71.48 244.383 72.548 244.935 73.868V69.8H246.087V86H244.935V81.968C244.287 83.312 243.279 84.392 241.911 85.208C240.567 86 239.127 86.396 237.591 86.396ZM237.663 85.388C238.983 85.388 240.207 85.052 241.335 84.38C242.463 83.684 243.351 82.772 243.999 81.644C244.671 80.492 245.007 79.244 245.007 77.9C245.007 76.58 244.671 75.344 243.999 74.192C243.327 73.04 242.427 72.128 241.299 71.456C240.171 70.76 238.947 70.412 237.627 70.412C236.307 70.412 235.071 70.76 233.919 71.456C232.791 72.152 231.879 73.076 231.183 74.228C230.511 75.38 230.175 76.616 230.175 77.936C230.175 79.256 230.511 80.492 231.183 81.644C231.879 82.772 232.803 83.684 233.955 84.38C235.107 85.052 236.343 85.388 237.663 85.388ZM259.127 86.396C257.663 86.396 256.247 86 254.879 85.208C253.535 84.416 252.503 83.372 251.783 82.076V86H250.631V59H251.783V73.904C252.431 72.536 253.439 71.444 254.807 70.628C256.175 69.812 257.615 69.404 259.127 69.404C260.687 69.404 262.115 69.788 263.411 70.556C264.731 71.324 265.775 72.356 266.543 73.652C267.311 74.948 267.695 76.364 267.695 77.9C267.695 79.436 267.311 80.852 266.543 82.148C265.775 83.444 264.731 84.476 263.411 85.244C262.115 86.012 260.687 86.396 259.127 86.396ZM259.199 85.388C260.519 85.388 261.743 85.052 262.871 84.38C263.999 83.684 264.887 82.772 265.535 81.644C266.207 80.492 266.543 79.244 266.543 77.9C266.543 76.58 266.207 75.344 265.535 74.192C264.863 73.04 263.963 72.128 262.835 71.456C261.707 70.76 260.483 70.412 259.163 70.412C257.843 70.412 256.607 70.76 255.455 71.456C254.327 72.152 253.415 73.076 252.719 74.228C252.047 75.38 251.711 76.616 251.711 77.936C251.711 79.256 252.047 80.492 252.719 81.644C253.415 82.772 254.339 83.684 255.491 84.38C256.643 85.052 257.879 85.388 259.199 85.388Z" fill="#1E1E1E"/>
<path d="M46 86H22.1126C17.9718 86 15.6256 81.2547 18.1396 77.9644L29 63.75L37.5 52.625C40.2566 49.0171 41.75 44.6027 41.75 40.0622V8H50.25V40.0622C50.25 44.6027 51.7434 49.0171 54.5 52.625L63 63.75L73.8604 77.9644C76.3744 81.2547 74.0282 86 69.8874 86H46Z" fill="white" stroke="#1E1E1E"/>
<path d="M32 59.5L34.1302 60.3521C36.0339 61.1136 38.0353 61.6035 40.0755 61.8075L40.5258 61.8526C41.5067 61.9507 42.4943 61.962 43.4772 61.8864L46.3851 61.6627C47.7645 61.5566 49.0823 61.0471 50.1743 60.1978V60.1978C51.9503 58.8165 54.2787 58.3653 56.442 58.9834L60 60" stroke="#1E1E1E"/>
</svg>
