<svg width="130" height="118" viewBox="0 0 130 118" fill="none" xmlns="http://www.w3.org/2000/svg">
<mask id="path-1-inside-1_22_13" fill="white">
<path d="M43.6628 0.0520919C39.7382 -0.208164 35.881 0.494035 32.5 2.44607C27.992 5.04877 24.99 9.4914 23.3775 14.6064C21.765 19.7213 21.3924 25.6161 21.981 32.0534C22.0407 32.7054 22.1554 33.385 22.2349 34.0483C21.6196 34.3115 20.9715 34.5533 20.376 34.8282C14.5068 37.537 9.59026 40.8038 5.9668 44.7577C2.34334 48.7117 0 53.5353 0 58.7407C0 63.9461 2.34334 68.7698 5.9668 72.7237C9.59026 76.6776 14.5068 79.9444 20.376 82.6533C20.9715 82.9281 21.6196 83.1699 22.2349 83.4331C22.1554 84.0964 22.0407 84.776 21.981 85.4281C21.3924 91.8654 21.765 97.7601 23.3775 102.875C24.99 107.99 27.992 112.433 32.5 115.035C37.008 117.638 42.3534 118.019 47.5893 116.858C52.8252 115.697 58.1144 113.069 63.3949 109.341C63.9296 108.963 64.4656 108.526 65 108.126C65.5344 108.526 66.0704 108.963 66.605 109.341C71.8856 113.069 77.1748 115.697 82.4107 116.858C87.6466 118.019 92.992 117.638 97.5 115.035C102.008 112.433 105.01 107.99 106.622 102.875C108.235 97.7601 108.608 91.8654 108.019 85.4281C107.959 84.776 107.845 84.0964 107.765 83.4331C108.38 83.1699 109.028 82.9281 109.624 82.6533C115.493 79.9444 120.41 76.6776 124.033 72.7237C127.657 68.7698 130 63.9461 130 58.7407C130 53.5353 127.657 48.7117 124.033 44.7577C120.41 40.8038 115.493 37.537 109.624 34.8282C109.028 34.5533 108.38 34.3115 107.765 34.0483C107.845 33.385 107.959 32.7054 108.019 32.0534C108.608 25.6161 108.235 19.7213 106.622 14.6064C105.01 9.4914 102.008 5.04877 97.5 2.44607C92.992 -0.156642 87.6466 -0.537667 82.4107 0.623381C77.1748 1.78443 71.8856 4.41239 66.605 8.14082C66.0704 8.51829 65.5344 8.9556 65 9.35594C64.4656 8.9556 63.9296 8.51829 63.3949 8.14082C58.1144 4.41239 52.8252 1.78443 47.5893 0.623381C46.2803 0.333118 44.971 0.138844 43.6628 0.0520919ZM43.0552 9.30154C43.8464 9.3611 44.6875 9.4924 45.5852 9.69146C49.0938 10.4695 53.2956 12.4387 57.7274 15.5222C54.0363 19.0237 50.4038 23.0072 46.9364 27.4649C41.3486 28.2388 36.0853 29.3848 31.2123 30.8292C30.7585 25.4515 31.1478 20.8257 32.228 17.3993C33.3338 13.8914 34.9889 11.733 37.1429 10.4895C38.7583 9.55678 40.6816 9.12283 43.0552 9.30154ZM86.9448 9.30154C89.3184 9.12283 91.2417 9.55678 92.8571 10.4895C95.0111 11.733 96.6662 13.8914 97.772 17.3993C98.8522 20.8257 99.2414 25.4515 98.7877 30.8292C93.9147 29.3848 88.6514 28.2388 83.0636 27.4649C79.5962 23.0072 75.9637 19.0237 72.2726 15.5222C76.7044 12.4387 80.9062 10.4695 84.4148 9.69146C85.3125 9.4924 86.1536 9.3611 86.9448 9.30154ZM65 21.4074C66.6319 22.9162 68.2609 24.5941 69.8877 26.3495C68.2686 26.2923 66.6505 26.2407 65 26.2407C63.3495 26.2407 61.7314 26.2923 60.1123 26.3495C61.7391 24.5941 63.3681 22.9162 65 21.4074ZM65 35.5264C69.4782 35.5264 73.8186 35.7898 77.9946 36.2337C80.467 39.6282 82.8648 43.2554 85.1039 47.1336C87.3432 51.0121 89.2855 54.902 90.9891 58.7407C89.2855 62.5795 87.3432 66.4694 85.1039 70.3479C82.8648 74.2261 80.467 77.8532 77.9946 81.2477C73.8186 81.6917 69.4782 81.955 65 81.955C60.5218 81.955 56.1814 81.6917 52.0054 81.2477C49.533 77.8532 47.1352 74.2261 44.8961 70.3479C42.6568 66.4694 40.7145 62.5795 39.0109 58.7407C40.7145 54.902 42.6568 51.0121 44.8961 47.1336C47.1352 43.2554 49.533 39.6282 52.0054 36.2337C56.1814 35.7898 60.5218 35.5264 65 35.5264ZM39.3917 38.3103C38.5327 39.6838 37.6779 41.0614 36.8527 42.4907C36.0275 43.92 35.264 45.3492 34.504 46.7799C33.7982 44.4967 33.1625 42.2433 32.6723 40.0786C34.7941 39.4199 37.059 38.8413 39.3917 38.3103ZM90.6083 38.3103C92.941 38.8413 95.2059 39.4199 97.3277 40.0786C96.8375 42.2433 96.2018 44.4967 95.496 46.7799C94.736 45.3492 93.9725 43.92 93.1473 42.4907C92.3221 41.0614 91.4673 39.6838 90.6083 38.3103ZM23.9307 43.4338C25.1172 48.3802 26.7557 53.5101 28.8818 58.7407C26.7557 63.9713 25.1172 69.1013 23.9307 74.0477C19.0488 71.7523 15.2397 69.0964 12.8132 66.4486C10.3282 63.7369 9.28571 61.2279 9.28571 58.7407C9.28571 56.2536 10.3282 53.7445 12.8132 51.0329C15.2397 48.385 19.0488 45.7292 23.9307 43.4338ZM106.069 43.4338C110.951 45.7292 114.76 48.385 117.187 51.0329C119.672 53.7445 120.714 56.2536 120.714 58.7407C120.714 61.2279 119.672 63.7369 117.187 66.4486C114.76 69.0964 110.951 71.7523 106.069 74.0477C104.883 69.1013 103.244 63.9713 101.118 58.7407C103.244 53.5101 104.883 48.3802 106.069 43.4338ZM65 44.8122C57.3625 44.8122 51.0714 51.1032 51.0714 58.7407C51.0714 66.3783 57.3625 72.6693 65 72.6693C72.6375 72.6693 78.9286 66.3783 78.9286 58.7407C78.9286 51.1032 72.6375 44.8122 65 44.8122ZM65 54.0979C67.6192 54.0979 69.6429 56.1216 69.6429 58.7407C69.6429 61.3599 67.6192 63.3836 65 63.3836C62.3808 63.3836 60.3571 61.3599 60.3571 58.7407C60.3571 56.1216 62.3808 54.0979 65 54.0979ZM34.504 70.7015C35.264 72.1322 36.0275 73.5614 36.8527 74.9907C37.6779 76.42 38.5327 77.7977 39.3917 79.1711C37.059 78.6402 34.7941 78.0615 32.6723 77.4028C33.1625 75.2381 33.7982 72.9847 34.504 70.7015ZM95.496 70.7015C96.2018 72.9847 96.8375 75.2381 97.3277 77.4028C95.2059 78.0615 92.941 78.6402 90.6083 79.1711C91.4673 77.7977 92.3221 76.42 93.1473 74.9907C93.9725 73.5614 94.736 72.1322 95.496 70.7015ZM31.2123 86.6523C36.0853 88.0967 41.3486 89.2426 46.9364 90.0165C50.4038 94.4742 54.0363 98.4577 57.7274 101.959C53.2956 105.043 49.0938 107.012 45.5852 107.79C41.9944 108.586 39.2968 108.236 37.1429 106.992C34.9889 105.748 33.3338 103.59 32.228 100.082C31.1478 96.6557 30.7585 92.0299 31.2123 86.6523ZM98.7877 86.6523C99.2414 92.0299 98.8522 96.6557 97.772 100.082C96.6662 103.59 95.0111 105.748 92.8571 106.992C90.7032 108.236 88.0056 108.586 84.4148 107.79C80.9062 107.012 76.7044 105.043 72.2726 101.959C75.9637 98.4577 79.5962 94.4742 83.0636 90.0165C88.6514 89.2426 93.9147 88.0967 98.7877 86.6523ZM60.1123 91.1319C61.7314 91.1892 63.3495 91.2407 65 91.2407C66.6505 91.2407 68.2686 91.1892 69.8877 91.1319C68.2609 92.8874 66.6319 94.5652 65 96.074C63.3681 94.5652 61.7391 92.8874 60.1123 91.1319Z"/>
</mask>
<path d="M43.6628 0.0520919C39.7382 -0.208164 35.881 0.494035 32.5 2.44607C27.992 5.04877 24.99 9.4914 23.3775 14.6064C21.765 19.7213 21.3924 25.6161 21.981 32.0534C22.0407 32.7054 22.1554 33.385 22.2349 34.0483C21.6196 34.3115 20.9715 34.5533 20.376 34.8282C14.5068 37.537 9.59026 40.8038 5.9668 44.7577C2.34334 48.7117 0 53.5353 0 58.7407C0 63.9461 2.34334 68.7698 5.9668 72.7237C9.59026 76.6776 14.5068 79.9444 20.376 82.6533C20.9715 82.9281 21.6196 83.1699 22.2349 83.4331C22.1554 84.0964 22.0407 84.776 21.981 85.4281C21.3924 91.8654 21.765 97.7601 23.3775 102.875C24.99 107.99 27.992 112.433 32.5 115.035C37.008 117.638 42.3534 118.019 47.5893 116.858C52.8252 115.697 58.1144 113.069 63.3949 109.341C63.9296 108.963 64.4656 108.526 65 108.126C65.5344 108.526 66.0704 108.963 66.605 109.341C71.8856 113.069 77.1748 115.697 82.4107 116.858C87.6466 118.019 92.992 117.638 97.5 115.035C102.008 112.433 105.01 107.99 106.622 102.875C108.235 97.7601 108.608 91.8654 108.019 85.4281C107.959 84.776 107.845 84.0964 107.765 83.4331C108.38 83.1699 109.028 82.9281 109.624 82.6533C115.493 79.9444 120.41 76.6776 124.033 72.7237C127.657 68.7698 130 63.9461 130 58.7407C130 53.5353 127.657 48.7117 124.033 44.7577C120.41 40.8038 115.493 37.537 109.624 34.8282C109.028 34.5533 108.38 34.3115 107.765 34.0483C107.845 33.385 107.959 32.7054 108.019 32.0534C108.608 25.6161 108.235 19.7213 106.622 14.6064C105.01 9.4914 102.008 5.04877 97.5 2.44607C92.992 -0.156642 87.6466 -0.537667 82.4107 0.623381C77.1748 1.78443 71.8856 4.41239 66.605 8.14082C66.0704 8.51829 65.5344 8.9556 65 9.35594C64.4656 8.9556 63.9296 8.51829 63.3949 8.14082C58.1144 4.41239 52.8252 1.78443 47.5893 0.623381C46.2803 0.333118 44.971 0.138844 43.6628 0.0520919ZM43.0552 9.30154C43.8464 9.3611 44.6875 9.4924 45.5852 9.69146C49.0938 10.4695 53.2956 12.4387 57.7274 15.5222C54.0363 19.0237 50.4038 23.0072 46.9364 27.4649C41.3486 28.2388 36.0853 29.3848 31.2123 30.8292C30.7585 25.4515 31.1478 20.8257 32.228 17.3993C33.3338 13.8914 34.9889 11.733 37.1429 10.4895C38.7583 9.55678 40.6816 9.12283 43.0552 9.30154ZM86.9448 9.30154C89.3184 9.12283 91.2417 9.55678 92.8571 10.4895C95.0111 11.733 96.6662 13.8914 97.772 17.3993C98.8522 20.8257 99.2414 25.4515 98.7877 30.8292C93.9147 29.3848 88.6514 28.2388 83.0636 27.4649C79.5962 23.0072 75.9637 19.0237 72.2726 15.5222C76.7044 12.4387 80.9062 10.4695 84.4148 9.69146C85.3125 9.4924 86.1536 9.3611 86.9448 9.30154ZM65 21.4074C66.6319 22.9162 68.2609 24.5941 69.8877 26.3495C68.2686 26.2923 66.6505 26.2407 65 26.2407C63.3495 26.2407 61.7314 26.2923 60.1123 26.3495C61.7391 24.5941 63.3681 22.9162 65 21.4074ZM65 35.5264C69.4782 35.5264 73.8186 35.7898 77.9946 36.2337C80.467 39.6282 82.8648 43.2554 85.1039 47.1336C87.3432 51.0121 89.2855 54.902 90.9891 58.7407C89.2855 62.5795 87.3432 66.4694 85.1039 70.3479C82.8648 74.2261 80.467 77.8532 77.9946 81.2477C73.8186 81.6917 69.4782 81.955 65 81.955C60.5218 81.955 56.1814 81.6917 52.0054 81.2477C49.533 77.8532 47.1352 74.2261 44.8961 70.3479C42.6568 66.4694 40.7145 62.5795 39.0109 58.7407C40.7145 54.902 42.6568 51.0121 44.8961 47.1336C47.1352 43.2554 49.533 39.6282 52.0054 36.2337C56.1814 35.7898 60.5218 35.5264 65 35.5264ZM39.3917 38.3103C38.5327 39.6838 37.6779 41.0614 36.8527 42.4907C36.0275 43.92 35.264 45.3492 34.504 46.7799C33.7982 44.4967 33.1625 42.2433 32.6723 40.0786C34.7941 39.4199 37.059 38.8413 39.3917 38.3103ZM90.6083 38.3103C92.941 38.8413 95.2059 39.4199 97.3277 40.0786C96.8375 42.2433 96.2018 44.4967 95.496 46.7799C94.736 45.3492 93.9725 43.92 93.1473 42.4907C92.3221 41.0614 91.4673 39.6838 90.6083 38.3103ZM23.9307 43.4338C25.1172 48.3802 26.7557 53.5101 28.8818 58.7407C26.7557 63.9713 25.1172 69.1013 23.9307 74.0477C19.0488 71.7523 15.2397 69.0964 12.8132 66.4486C10.3282 63.7369 9.28571 61.2279 9.28571 58.7407C9.28571 56.2536 10.3282 53.7445 12.8132 51.0329C15.2397 48.385 19.0488 45.7292 23.9307 43.4338ZM106.069 43.4338C110.951 45.7292 114.76 48.385 117.187 51.0329C119.672 53.7445 120.714 56.2536 120.714 58.7407C120.714 61.2279 119.672 63.7369 117.187 66.4486C114.76 69.0964 110.951 71.7523 106.069 74.0477C104.883 69.1013 103.244 63.9713 101.118 58.7407C103.244 53.5101 104.883 48.3802 106.069 43.4338ZM65 44.8122C57.3625 44.8122 51.0714 51.1032 51.0714 58.7407C51.0714 66.3783 57.3625 72.6693 65 72.6693C72.6375 72.6693 78.9286 66.3783 78.9286 58.7407C78.9286 51.1032 72.6375 44.8122 65 44.8122ZM65 54.0979C67.6192 54.0979 69.6429 56.1216 69.6429 58.7407C69.6429 61.3599 67.6192 63.3836 65 63.3836C62.3808 63.3836 60.3571 61.3599 60.3571 58.7407C60.3571 56.1216 62.3808 54.0979 65 54.0979ZM34.504 70.7015C35.264 72.1322 36.0275 73.5614 36.8527 74.9907C37.6779 76.42 38.5327 77.7977 39.3917 79.1711C37.059 78.6402 34.7941 78.0615 32.6723 77.4028C33.1625 75.2381 33.7982 72.9847 34.504 70.7015ZM95.496 70.7015C96.2018 72.9847 96.8375 75.2381 97.3277 77.4028C95.2059 78.0615 92.941 78.6402 90.6083 79.1711C91.4673 77.7977 92.3221 76.42 93.1473 74.9907C93.9725 73.5614 94.736 72.1322 95.496 70.7015ZM31.2123 86.6523C36.0853 88.0967 41.3486 89.2426 46.9364 90.0165C50.4038 94.4742 54.0363 98.4577 57.7274 101.959C53.2956 105.043 49.0938 107.012 45.5852 107.79C41.9944 108.586 39.2968 108.236 37.1429 106.992C34.9889 105.748 33.3338 103.59 32.228 100.082C31.1478 96.6557 30.7585 92.0299 31.2123 86.6523ZM98.7877 86.6523C99.2414 92.0299 98.8522 96.6557 97.772 100.082C96.6662 103.59 95.0111 105.748 92.8571 106.992C90.7032 108.236 88.0056 108.586 84.4148 107.79C80.9062 107.012 76.7044 105.043 72.2726 101.959C75.9637 98.4577 79.5962 94.4742 83.0636 90.0165C88.6514 89.2426 93.9147 88.0967 98.7877 86.6523ZM60.1123 91.1319C61.7314 91.1892 63.3495 91.2407 65 91.2407C66.6505 91.2407 68.2686 91.1892 69.8877 91.1319C68.2609 92.8874 66.6319 94.5652 65 96.074C63.3681 94.5652 61.7391 92.8874 60.1123 91.1319Z" fill="#1E1E1E" stroke="white" stroke-width="8" mask="url(#path-1-inside-1_22_13)"/>
</svg>
